<svg xmlns="http://www.w3.org/2000/svg" viewBox="0 0 103 103"><defs><style>.cls-1{fill:#21a4cc;}</style></defs><g id="Camada_2" data-name="Camada 2"><g id="Camada_2-2" data-name="Camada 2"><path class="cls-1" d="M96.5,103H6.5A6.51,6.51,0,0,1,0,96.5V6.5A6.51,6.51,0,0,1,6.5,0h90A6.51,6.51,0,0,1,103,6.5v90A6.51,6.51,0,0,1,96.5,103ZM6.5,3A3.5,3.5,0,0,0,3,6.5v90A3.5,3.5,0,0,0,6.5,100h90a3.5,3.5,0,0,0,3.5-3.5V6.5A3.5,3.5,0,0,0,96.5,3Z"/><path class="cls-1" d="M49.66,32.15,26.75,44.49a2,2,0,0,0-.29.22l-.16.13a1.76,1.76,0,0,0-.36.54.38.38,0,0,0,0,.1,1.74,1.74,0,0,0-.11.56s0,0,0,.07V70a1.84,1.84,0,0,0,1.84,1.83h5.51a1.84,1.84,0,1,0,0-3.67H29.46V47.94h9.18V70a1.83,1.83,0,0,0,1.84,1.83h34.9A1.83,1.83,0,0,0,77.22,70V46.11s0,0,0-.07a1.51,1.51,0,0,0-.11-.56s0-.07,0-.1a2,2,0,0,0-.37-.54,1.09,1.09,0,0,0-.17-.13,1.51,1.51,0,0,0-.28-.22L53.34,32.15l-1.84-1Zm1.84,3.18,16.59,8.94H34.91Zm3.67,32.82H42.32V47.94H60.68v14.7a1.84,1.84,0,0,0,3.68,0V47.94h9.18V68.15H55.17Z"/><circle class="cls-1" cx="51.5" cy="40.4" r="1.8"/></g></g></svg>