<svg xmlns="http://www.w3.org/2000/svg" viewBox="0 0 103 103"><defs><style>.cls-1{fill:#21a4cc;}</style></defs><g id="Camada_2" data-name="Camada 2"><g id="Camada_2-2" data-name="Camada 2"><path class="cls-1" d="M96.5,103H6.5A6.51,6.51,0,0,1,0,96.5V6.5A6.51,6.51,0,0,1,6.5,0h90A6.51,6.51,0,0,1,103,6.5v90A6.51,6.51,0,0,1,96.5,103ZM6.5,3A3.5,3.5,0,0,0,3,6.5v90A3.5,3.5,0,0,0,6.5,100h90a3.5,3.5,0,0,0,3.5-3.5V6.5A3.5,3.5,0,0,0,96.5,3Z"/><path class="cls-1" d="M69.05,64.69a6.39,6.39,0,0,0-5.61-9.52H58.85V42.32s0-.1,0-.15c.45-.66.88-1.33,1.26-2a21.87,21.87,0,0,0,2.36-6.76,6,6,0,0,0-1.39-4.9,8,8,0,0,0-6.14-2.71H48.09A8,8,0,0,0,42,28.49a6,6,0,0,0-1.39,4.9,21.87,21.87,0,0,0,2.36,6.76c.38.69.81,1.36,1.26,2,0,0,0,.1,0,.15V57A1.84,1.84,0,0,0,46,58.85H63.44a2.76,2.76,0,1,1,0,5.51h-.92a1.84,1.84,0,1,0,0,3.67h4.59a2.76,2.76,0,1,1,0,5.51H35.89a2.76,2.76,0,1,1,0-5.51H55.17a1.84,1.84,0,1,0,0-3.67H39.56a2.76,2.76,0,1,1,0-5.51,1.84,1.84,0,0,0,0-3.68A6.39,6.39,0,0,0,34,64.69a6.41,6.41,0,0,0,1.94,12.53H67.11a6.41,6.41,0,0,0,1.94-12.53ZM47.89,46.46a5.41,5.41,0,0,0,7.22,0l.06-.07v8.78H47.83V46.39Zm-3.13-15.6a4.34,4.34,0,0,1,3.33-1.4h6.82a4.34,4.34,0,0,1,3.33,1.4,2.34,2.34,0,0,1,.58,1.91,18.29,18.29,0,0,1-2,5.62,21.05,21.05,0,0,1-4.23,5.37,1.78,1.78,0,0,1-2.24,0,21.05,21.05,0,0,1-4.23-5.37,18.29,18.29,0,0,1-2-5.62A2.34,2.34,0,0,1,44.76,30.86Z"/><path class="cls-1" d="M47.86,36.8a1.84,1.84,0,1,0,0-3.67h0a1.84,1.84,0,0,0,0,3.67Z"/><path class="cls-1" d="M55.21,36.8a1.84,1.84,0,1,0,0-3.67h0a1.84,1.84,0,1,0,0,3.67Z"/></g></g></svg>