<svg xmlns="http://www.w3.org/2000/svg" viewBox="0 0 103 103"><defs><style>.cls-1{fill:#21a4cc;}</style></defs><g id="Camada_2" data-name="Camada 2"><g id="Camada_2-2" data-name="Camada 2"><path class="cls-1" d="M96.5,103H6.5A6.51,6.51,0,0,1,0,96.5V6.5A6.51,6.51,0,0,1,6.5,0h90A6.51,6.51,0,0,1,103,6.5v90A6.51,6.51,0,0,1,96.5,103ZM6.5,3A3.5,3.5,0,0,0,3,6.5v90A3.5,3.5,0,0,0,6.5,100h90a3.5,3.5,0,0,0,3.5-3.5V6.5A3.5,3.5,0,0,0,96.5,3Z"/><path class="cls-1" d="M43.29,48.56a4.11,4.11,0,1,0-4.11,4.1A4.12,4.12,0,0,0,43.29,48.56Zm-5.87,0a1.76,1.76,0,1,1,1.76,1.76A1.76,1.76,0,0,1,37.42,48.56Z"/><path class="cls-1" d="M46.22,45.62a4.11,4.11,0,1,0-4.11-4.1A4.11,4.11,0,0,0,46.22,45.62Zm0-5.86a1.76,1.76,0,1,1-1.76,1.76A1.76,1.76,0,0,1,46.22,39.76Z"/><path class="cls-1" d="M63.82,44.45a4.11,4.11,0,1,0,0,8.21,1.17,1.17,0,0,0,0-2.34,1.76,1.76,0,1,1,1.76-1.76,1.17,1.17,0,1,0,2.34,0A4.11,4.11,0,0,0,63.82,44.45Z"/><path class="cls-1" d="M56.78,45.62a4.11,4.11,0,1,0-4.11-4.1A4.11,4.11,0,0,0,56.78,45.62Zm0-5.86A1.76,1.76,0,1,1,55,41.52,1.76,1.76,0,0,1,56.78,39.76Z"/><path class="cls-1" d="M58.07,50.4a10.13,10.13,0,0,0-13.21.05l.77.89.83.83a7.76,7.76,0,0,1,10.13.06,18,18,0,0,1,4.65,6.37,3.28,3.28,0,0,1-1.49,4.3,2.62,2.62,0,0,1-.39.15c-2.12.67-5.25-.65-6.79-4a1.17,1.17,0,0,0-2.14,0c-1.55,3.38-4.67,4.7-6.79,4a2.74,2.74,0,0,1-.4-.15,3.27,3.27,0,0,1-1.48-4.3,18.06,18.06,0,0,1,1.61-2.93,1.17,1.17,0,1,0-1.94-1.32,21.61,21.61,0,0,0-1.82,3.3A5.63,5.63,0,0,0,42.26,65a6.66,6.66,0,0,0,.67.26,6.1,6.1,0,0,0,1.85.28,8.66,8.66,0,0,0,6.72-3.75c2.14,2.92,5.6,4.41,8.57,3.47a6.66,6.66,0,0,0,.67-.26,5.63,5.63,0,0,0,2.64-7.38A20.25,20.25,0,0,0,58.07,50.4Z"/><path class="cls-1" d="M51.5,77.21A25.71,25.71,0,1,1,77.22,51.5,25.75,25.75,0,0,1,51.5,77.21Zm0-47.76a22.05,22.05,0,1,0,22,22.05A22.08,22.08,0,0,0,51.5,29.45Z"/><path class="cls-1" d="M68.76,69.17a1.83,1.83,0,0,1-1.22-.45L33.19,38.39A1.88,1.88,0,0,1,33,35.78a1.85,1.85,0,0,1,2.6-.16L70,66a1.86,1.86,0,0,1,.15,2.6A1.8,1.8,0,0,1,68.76,69.17Z"/></g></g></svg>