<svg xmlns="http://www.w3.org/2000/svg" viewBox="0 0 103 103"><defs><style>.cls-1{fill:#21a4cc;}</style></defs><g id="Camada_2" data-name="Camada 2"><g id="Camada_2-2" data-name="Camada 2"><path class="cls-1" d="M96.5,103H6.5A6.51,6.51,0,0,1,0,96.5V6.5A6.51,6.51,0,0,1,6.5,0h90A6.51,6.51,0,0,1,103,6.5v90A6.51,6.51,0,0,1,96.5,103ZM6.5,3A3.5,3.5,0,0,0,3,6.5v90A3.5,3.5,0,0,0,6.5,100h90a3.5,3.5,0,0,0,3.5-3.5V6.5A3.5,3.5,0,0,0,96.5,3Z"/><path class="cls-1" d="M59.94,42.21l4.21.88a2.79,2.79,0,0,0,2.79-.88c.18-.18.35-.52.52-.71l.7-1.57a3.92,3.92,0,0,0,.36-1.4V35.75a6.45,6.45,0,0,0-2.8-5.26l-2.27-1.58a1.36,1.36,0,0,0-1.75.18L59.42,31l-3.5-1.23H55.4l-11,.35H43.5a1.66,1.66,0,0,0-1.4,1.58,1.38,1.38,0,0,0,1.4,1.4h.17L47,33l7.52-.19h.7L58,33.82l1.22.34a1.67,1.67,0,0,0,1.58-.34l1.93-1.76,1.4.89a3.37,3.37,0,0,1,1.39,2.8v2.78l-.7,1.76-4.37-.87a4.08,4.08,0,0,0-3.68.87l-.17.17a4.36,4.36,0,0,0-1.4,3v8.4h-1.4V44.49a1.69,1.69,0,0,0-1.22-1.58L45.77,41.5l-3.49-.7h-.36A4.55,4.55,0,0,0,38.08,42l-3.33,3.51a1.17,1.17,0,0,0-.35,1.23l1.06,5.07H34.4l-1-4.37,1.4-5.61V36.62a3.06,3.06,0,0,1,1.93-3,.17.17,0,0,0,.17-.19c.36,0,.7-.17,1.06-.17a1.4,1.4,0,0,0,0-2.8,3.49,3.49,0,0,0-1.93.35h-4.2a.89.89,0,0,1-.7-.35,1.54,1.54,0,0,1-.18-.88,2.65,2.65,0,0,1,.53-.7,1.3,1.3,0,0,1,.7.18h.17a1.41,1.41,0,0,0,1.93-.52,1.5,1.5,0,0,0-.53-2.1h-.35a3.31,3.31,0,0,0-3.15-.17,3.55,3.55,0,0,0-2.1,2.61,3.76,3.76,0,0,0,3.68,4.74h.69a8.35,8.35,0,0,0-.69,3v4.71l-1.4,5.61v.7l1.4,6.11a1.53,1.53,0,0,0,1.57,1.06h3.86a1.62,1.62,0,0,0,1.22-.53,1.49,1.49,0,0,0,.35-1.23l-1.4-6.11,1.75-1.76V49a1.36,1.36,0,0,0,.35.7l1.05,1.74,1.75,2.63a1.54,1.54,0,0,0,1.22.7h4.55a1.57,1.57,0,0,0,1.23-.7,2,2,0,0,0,0-1.4l-2.63-5.24,1.23-2.29V45l3,.53v7.87a1.54,1.54,0,0,0,1.57,1.4h4.37a.58.58,0,0,0,.35-.19,1.15,1.15,0,0,0,1-1.21V50.78l3,.87v.19a1.54,1.54,0,0,0,1.4,1.57h4.55a1.54,1.54,0,0,0,1.4-1.57V50.25a4.75,4.75,0,0,0-.18-1.57c-.35-.17-.52-.7-.7-1.21A4.85,4.85,0,0,0,65,45.18l-6.31-1.92a.53.53,0,0,0-.34-.17c0-.36.17-.53.34-.53A1.5,1.5,0,0,1,59.94,42.21ZM44.37,51.84l-.17-.36-2.1-3V43.79l2.8.7-1.23,2.45a1.55,1.55,0,0,0,0,1.23l.7,1.38,1.22,2.29ZM64,48a2.27,2.27,0,0,1,1.57,2.27v.19H64.15A1.49,1.49,0,0,0,62.92,49l-4.73-1.23V46.07Z"/><path class="cls-1" d="M75,72a4.19,4.19,0,0,1-1,3.5A4.1,4.1,0,0,1,70.61,77H41.75a4.33,4.33,0,0,1-3.32-1.57,4.22,4.22,0,0,1-1-3.5l3.15-20.47,1.75,2.63a1.54,1.54,0,0,0,1.22.7h.17L40.88,72.48a1.92,1.92,0,0,0,.17.7.91.91,0,0,0,.7.34H54.52V70a1.66,1.66,0,0,1,1.75-1.76A1.77,1.77,0,0,1,58,70v3.49H70.61a.91.91,0,0,0,.7-.34c.18,0,.18-.36.18-.7L69.21,58A1.89,1.89,0,0,1,70.79,56a1.74,1.74,0,0,1,1.92,1.4Z"/><path class="cls-1" d="M56.21,54.26A1.75,1.75,0,0,0,54.46,56v7A1.75,1.75,0,0,0,58,63V56A1.76,1.76,0,0,0,56.21,54.26Z"/></g></g></svg>