<svg xmlns="http://www.w3.org/2000/svg" viewBox="0 0 103 103"><defs><style>.cls-1{fill:#21a4cc;}</style></defs><g id="Camada_2" data-name="Camada 2"><g id="Camada_2-2" data-name="Camada 2"><path class="cls-1" d="M96.5,103H6.5A6.51,6.51,0,0,1,0,96.5V6.5A6.51,6.51,0,0,1,6.5,0h90A6.51,6.51,0,0,1,103,6.5v90A6.51,6.51,0,0,1,96.5,103ZM6.5,3A3.5,3.5,0,0,0,3,6.5v90A3.5,3.5,0,0,0,6.5,100h90a3.5,3.5,0,0,0,3.5-3.5V6.5A3.5,3.5,0,0,0,96.5,3Z"/><path class="cls-1" d="M74.62,59.77h-.93A23.41,23.41,0,0,0,58.85,37.26V37a4.77,4.77,0,0,0-4.76-4.76H48.91A4.77,4.77,0,0,0,44.15,37v6.26a1.84,1.84,0,1,0,3.68,0V37a1.08,1.08,0,0,1,1.08-1.08h5.18A1.08,1.08,0,0,1,55.17,37v6.26a1.84,1.84,0,0,0,3.68,0v-2a19.72,19.72,0,0,1,11,20.13,1.84,1.84,0,0,0,1.83,2.06h1.83v3.67H29.46V63.44h1.83a1.84,1.84,0,0,0,1.83-2.06,19.73,19.73,0,0,1,6.13-16.8,1.84,1.84,0,0,0-2.51-2.69,23.46,23.46,0,0,0-7.43,17.88h-.93a2.6,2.6,0,0,0-2.6,2.59v5.83a2.61,2.61,0,0,0,2.6,2.6H74.62a2.61,2.61,0,0,0,2.6-2.6V62.36A2.6,2.6,0,0,0,74.62,59.77Z"/><path class="cls-1" d="M38.64,61.6a1.84,1.84,0,0,0,1.84,1.84h22a1.84,1.84,0,1,0,0-3.67h-22A1.83,1.83,0,0,0,38.64,61.6Z"/></g></g></svg>