<svg xmlns="http://www.w3.org/2000/svg" viewBox="0 0 103 103"><defs><style>.cls-1{fill:#21a4cc;}</style></defs><g id="Camada_2" data-name="Camada 2"><g id="Camada_2-2" data-name="Camada 2"><path class="cls-1" d="M96.5,103H6.5A6.51,6.51,0,0,1,0,96.5V6.5A6.51,6.51,0,0,1,6.5,0h90A6.51,6.51,0,0,1,103,6.5v90A6.51,6.51,0,0,1,96.5,103ZM6.5,3A3.5,3.5,0,0,0,3,6.5v90A3.5,3.5,0,0,0,6.5,100h90a3.5,3.5,0,0,0,3.5-3.5V6.5A3.5,3.5,0,0,0,96.5,3Z"/><path class="cls-1" d="M65.39,70.45A1.4,1.4,0,0,1,64,69.25a127.18,127.18,0,0,1-.72-34.44,1.39,1.39,0,1,1,2.76.33,124.83,124.83,0,0,0,.72,33.73,1.38,1.38,0,0,1-1.18,1.56A.71.71,0,0,1,65.39,70.45Z"/><path class="cls-1" d="M37.6,70.43h-.09A1.38,1.38,0,0,1,36.22,69L37,56.85a145.59,145.59,0,0,0-.16-22.07l-.13-.65a1.39,1.39,0,1,1,2.73-.54l.16.8A149.48,149.48,0,0,1,39.78,57L39,69.14A1.38,1.38,0,0,1,37.6,70.43Z"/><path class="cls-1" d="M51.33,46.14a1.19,1.19,0,0,1-1-.57l-2.94-4.92a2.88,2.88,0,0,1,.91-4,2.93,2.93,0,0,1,3-.15,2.92,2.92,0,0,1,3.06.15,2.89,2.89,0,0,1,.91,4l-2.94,4.92A1.2,1.2,0,0,1,51.33,46.14Zm-1.39-7.6a.58.58,0,0,0-.34.12.5.5,0,0,0-.18.75l1.91,3.2,1.92-3.2h0a.51.51,0,0,0-.17-.75.51.51,0,0,0-.78.14,1.15,1.15,0,0,1-1,.49h0a1.21,1.21,0,0,1-1-.49A.5.5,0,0,0,49.94,38.54Z"/><path class="cls-1" d="M49.72,50.16a.62.62,0,0,1-.56-.36l-2-4.84a.6.6,0,0,1,.33-.78.58.58,0,0,1,.78.31l2,4.84a.59.59,0,0,1-.33.78A.44.44,0,0,1,49.72,50.16Z"/><path class="cls-1" d="M45.7,50a.44.44,0,0,1-.25-.06.59.59,0,0,1-.29-.79l2.38-5a.59.59,0,0,1,.79-.28.58.58,0,0,1,.28.79l-2.37,5A.61.61,0,0,1,45.7,50Z"/><path class="cls-1" d="M49.25,49.05h-.09l-2.87-.48a.6.6,0,0,1-.49-.68.61.61,0,0,1,.59-.5h.1l2.86.48a.6.6,0,0,1-.1,1.19Z"/><path class="cls-1" d="M53.83,49.3h-.08a.6.6,0,0,1-.51-.68l.45-3.29c0-.32.25-.51.67-.51a.6.6,0,0,1,.51.68l-.45,3.28A.6.6,0,0,1,53.83,49.3Z"/><path class="cls-1" d="M53.83,50.32a.59.59,0,0,1-.59-.49.6.6,0,0,1,.48-.69l2.61-.46a.59.59,0,1,1,.21,1.16l-2.61.47Z"/><path class="cls-1" d="M57.31,45.54H57.2l-2.62-.45a.59.59,0,0,1-.48-.69.54.54,0,0,1,.69-.48l2.62.45a.61.61,0,0,1,.49.69A.6.6,0,0,1,57.31,45.54Z"/><path class="cls-1" d="M55.41,47.34a.59.59,0,0,1-.53-.31.6.6,0,0,1,.24-.81l1.59-.86a.6.6,0,1,1,.57,1l-1.59.86A.55.55,0,0,1,55.41,47.34Z"/><path class="cls-1" d="M56.59,49.6a.62.62,0,0,1-.48-.23l-1.46-1.94a.61.61,0,0,1,.13-.85.6.6,0,0,1,.83.12l1.46,1.94a.6.6,0,0,1-.13.84A.57.57,0,0,1,56.59,49.6Z"/><path class="cls-1" d="M51.5,77.21A25.71,25.71,0,1,1,77.22,51.5,25.75,25.75,0,0,1,51.5,77.21Zm0-47.76a22.05,22.05,0,1,0,22,22.05A22.08,22.08,0,0,0,51.5,29.45Z"/><path class="cls-1" d="M68.43,68.88a1.87,1.87,0,0,1-1.22-.44l-34-30A1.87,1.87,0,0,1,33,35.8a1.83,1.83,0,0,1,2.6-.16l34,30a1.87,1.87,0,0,1,.16,2.6A1.8,1.8,0,0,1,68.43,68.88Z"/><path class="cls-1" d="M46.78,52.54a.61.61,0,0,0-1,.49,7.42,7.42,0,0,1-.67,3.43,7.26,7.26,0,0,1-1.34,2,.62.62,0,0,0-.16.49L43.71,60l-.79.75a.61.61,0,0,0-.19.51l.11,1.08-.79.74a.61.61,0,0,0-.15.24l-.56,1.5a1.6,1.6,0,0,0-1,1,1.66,1.66,0,0,0-.1.73l.11,1-.11.29a.61.61,0,0,0,.36.79.63.63,0,0,0,.8-.36l.15-.43a.53.53,0,0,0,0-.28l-.12-1.14a.35.35,0,0,1,0-.18A.39.39,0,0,1,42,66l1.59.6a.38.38,0,0,1,.22.5.44.44,0,0,1-.1.15l-.84.79a.61.61,0,0,0-.15.23L42,70a.63.63,0,0,0,0,.36l.24,1.06-1.66-.62a.18.18,0,0,1-.09-.08.15.15,0,0,1,0-.13.63.63,0,0,0-.37-.8.62.62,0,0,0-.79.36,1.37,1.37,0,0,0,0,1.07,1.35,1.35,0,0,0,.78.74l2,.74a1,1,0,0,0,1-.14l.07-.06a1,1,0,0,0,.33-1l-.28-1.21.54-1.44.73-.69a1.81,1.81,0,0,0,.41-.62,1.62,1.62,0,0,0-.14-1.41l.26-.68.56-.27a.57.57,0,0,0,.32-.34l1.74-4.67a.62.62,0,0,0-1.16-.43l-1.64,4.43-.57.26a.65.65,0,0,0-.32.35l-.22.59-1.15-.43.38-1,.91-.85a.64.64,0,0,0,.19-.52L44,61.42l.79-.75a.61.61,0,0,0,.19-.51l-.12-1.11A8.19,8.19,0,0,0,46.22,57a9,9,0,0,0,.71-2.45,3.64,3.64,0,0,1,.51,1.21,3.78,3.78,0,0,1-.2,1.91.62.62,0,0,0,1.19.35,4.94,4.94,0,0,0,.22-2.51A5.36,5.36,0,0,0,46.78,52.54Z"/></g></g></svg>