<svg xmlns="http://www.w3.org/2000/svg" viewBox="0 0 103 103"><defs><style>.cls-1{fill:#21a4cc;}</style></defs><g id="Camada_2" data-name="Camada 2"><g id="Camada_2-2" data-name="Camada 2"><path class="cls-1" d="M96.5,103H6.5A6.51,6.51,0,0,1,0,96.5V6.5A6.51,6.51,0,0,1,6.5,0h90A6.51,6.51,0,0,1,103,6.5v90A6.51,6.51,0,0,1,96.5,103ZM6.5,3A3.5,3.5,0,0,0,3,6.5v90A3.5,3.5,0,0,0,6.5,100h90a3.5,3.5,0,0,0,3.5-3.5V6.5A3.5,3.5,0,0,0,96.5,3Z"/><path class="cls-1" d="M70.55,54.36a1.91,1.91,0,0,0-1.91,1.91V67.69H53.41v-19a7.62,7.62,0,0,1,15.23,0,1.8,1.8,0,0,0,1.91,1.92,1.91,1.91,0,0,0,1.9-1.92,11.61,11.61,0,0,0-9.52-11.23V37a6.83,6.83,0,0,0,3.61-4A9.34,9.34,0,0,0,66.35,30a5.35,5.35,0,0,0-.95-2.1A6.4,6.4,0,0,0,61,25.78a5.43,5.43,0,0,0-4.19,1.92H54.16A14.23,14.23,0,0,0,40.07,42V60.08A3.79,3.79,0,0,1,38,63.51a1.63,1.63,0,0,0-1.33-1.34l-6.09-1.53v3.82l3.81.94v1l-3.81.95v3.81l6.09-1.52a1.88,1.88,0,0,0,1.52-1.92v-.18a7.78,7.78,0,0,0,5.72-7.43V42A10.4,10.4,0,0,1,54.16,31.51H55.3a5.53,5.53,0,0,0,3.82,5.32v.58a11.43,11.43,0,0,0-9.53,11.23V75.32a1.81,1.81,0,0,0,1.91,1.9h3.8a1.91,1.91,0,0,0,1.91-1.9A2.06,2.06,0,0,0,55.3,73.4H53.41V71.51H68.64V73.4H62.93A1.92,1.92,0,0,0,61,75.32a1.8,1.8,0,0,0,1.91,1.9h7.62a1.91,1.91,0,0,0,1.9-1.9v-19A2.05,2.05,0,0,0,70.55,54.36ZM61,29.6a2.05,2.05,0,0,1,1.91,1.91A1.91,1.91,0,0,1,61,33.41a1.8,1.8,0,0,1-1.9-1.9A1.91,1.91,0,0,1,61,29.6Z"/></g></g></svg>