<svg xmlns="http://www.w3.org/2000/svg" viewBox="0 0 103 103"><defs><style>.cls-1{fill:#21a4cc;}</style></defs><g id="Camada_2" data-name="Camada 2"><g id="Camada_2-2" data-name="Camada 2"><path class="cls-1" d="M96.5,103H6.5A6.51,6.51,0,0,1,0,96.5V6.5A6.51,6.51,0,0,1,6.5,0h90A6.51,6.51,0,0,1,103,6.5v90A6.51,6.51,0,0,1,96.5,103ZM6.5,3A3.5,3.5,0,0,0,3,6.5v90A3.5,3.5,0,0,0,6.5,100h90a3.5,3.5,0,0,0,3.5-3.5V6.5A3.5,3.5,0,0,0,96.5,3Z"/><path class="cls-1" d="M76.38,69v5.69a2.42,2.42,0,0,1-2.48,2.49H29.28a2.58,2.58,0,0,1-2.66-2.49V69a2.58,2.58,0,0,1,2.66-2.48h.9a21.85,21.85,0,0,1,7.1-17.26,2.1,2.1,0,0,1,1.43-.52v.35a10.34,10.34,0,0,0,.53,3.39,19.28,19.28,0,0,0-5.52,15.64,1.14,1.14,0,0,1-.35,1.23A1.59,1.59,0,0,1,32,70.1H30.18v3.56H72.83V70.1H71.05a1.53,1.53,0,0,1-1.24-.71,1.16,1.16,0,0,1-.35-1.23A19.83,19.83,0,0,0,64,52.52a11.41,11.41,0,0,0,.53-3.39V47.88A22.84,22.84,0,0,1,73,66.56h.88A2.42,2.42,0,0,1,76.38,69Z"/><path class="cls-1" d="M39.77,49.3a1.72,1.72,0,0,1,0,2.5c-.18.18-.53.35-.53.72a10.34,10.34,0,0,1-.53-3.39v-.35A1.57,1.57,0,0,1,39.77,49.3Z"/><path class="cls-1" d="M64.48,47.88v1.25A11.41,11.41,0,0,1,64,52.52a12,12,0,0,0-2.14-2.14A6.06,6.06,0,0,0,62,48.59a10.9,10.9,0,0,0-.35-2.48C62.71,46.65,63.59,47.36,64.48,47.88Z"/><path class="cls-1" d="M39.14,68.3a1.78,1.78,0,0,0,1.78,1.78H62.25a1.78,1.78,0,1,0,0-3.55H40.92A1.78,1.78,0,0,0,39.14,68.3Z"/><path class="cls-1" d="M62.21,47.77v1a9,9,0,0,1-.44,2.79,12.38,12.38,0,0,1-2.19,4.1,1.77,1.77,0,0,1-1.32.74A1.69,1.69,0,0,1,57.09,56a1.82,1.82,0,0,1-.29-2.49,9.16,9.16,0,0,0,1.75-4.7,7.17,7.17,0,0,0-7-7.18,7,7,0,0,0-6.89,7.18,6.6,6.6,0,0,0,1.76,4.55,1.82,1.82,0,0,1-.15,2.49,1.84,1.84,0,0,1-2.63-.15,8.6,8.6,0,0,1-2.2-4.1A8.63,8.63,0,0,1,41,48.8v-.28a10.64,10.64,0,0,1,21.24-.75Z"/><path class="cls-1" d="M51.59,52.52a4.35,4.35,0,0,1-4.35-4.34,1.78,1.78,0,0,1,3.56,0c0,.9,1.57.88,1.57,0a1.78,1.78,0,0,1,3.56,0A4.35,4.35,0,0,1,51.59,52.52Z"/><path class="cls-1" d="M51.5,37a1.77,1.77,0,0,1-1.78-1.77V27.55a1.78,1.78,0,0,1,3.56,0v7.64A1.77,1.77,0,0,1,51.5,37Z"/><path class="cls-1" d="M60.71,39.11a1.77,1.77,0,0,1-1.26-3l3.32-3.31a1.77,1.77,0,1,1,2.51,2.5L62,38.59A1.78,1.78,0,0,1,60.71,39.11Z"/><path class="cls-1" d="M42.29,39.11A1.78,1.78,0,0,1,41,38.59l-3.31-3.31a1.77,1.77,0,1,1,2.51-2.5l3.32,3.31a1.77,1.77,0,0,1-1.26,3Z"/><path class="cls-1" d="M72.27,46H64.94a1.77,1.77,0,1,1,0-3.54h7.33a1.77,1.77,0,1,1,0,3.54Z"/><path class="cls-1" d="M38.23,46H30.9a1.77,1.77,0,1,1,0-3.54h7.33a1.77,1.77,0,1,1,0,3.54Z"/></g></g></svg>