<svg xmlns="http://www.w3.org/2000/svg" viewBox="0 0 103 103"><defs><style>.cls-1{fill:#21a4cc;}</style></defs><g id="Camada_2" data-name="Camada 2"><g id="Camada_2-2" data-name="Camada 2"><path class="cls-1" d="M96.5,103H6.5A6.51,6.51,0,0,1,0,96.5V6.5A6.51,6.51,0,0,1,6.5,0h90A6.51,6.51,0,0,1,103,6.5v90A6.51,6.51,0,0,1,96.5,103ZM6.5,3A3.5,3.5,0,0,0,3,6.5v90A3.5,3.5,0,0,0,6.5,100h90a3.5,3.5,0,0,0,3.5-3.5V6.5A3.5,3.5,0,0,0,96.5,3Z"/><path class="cls-1" d="M45.85,62.75a1.8,1.8,0,0,1-1.05-.32c-6-4.23-10.21-14.49-10.21-21,0-8.61,7.55-15.6,16.82-15.6s17,7,17,15.6c0,6.5-4.27,16.74-10.4,21a1.94,1.94,0,0,1-1.7.22,1.88,1.88,0,0,1-1.14-1.31l-1-4.23H48.75L47.62,61.4a1.83,1.83,0,0,1-1.14,1.25A1.89,1.89,0,0,1,45.85,62.75Zm5.56-33.31c-7.25,0-13.16,5.36-13.16,12,0,4.71,2.75,12,6.59,16.2l.73-2.77a1.82,1.82,0,0,1,1.77-1.35h8.32a1.84,1.84,0,0,1,1.79,1.41l.61,2.64c3.89-4.2,6.69-11.47,6.69-16.13C64.75,34.8,58.76,29.44,51.41,29.44Z"/><path class="cls-1" d="M56,57.11H47a1.84,1.84,0,0,1-1.8-1.48,75,75,0,0,1-1.24-12.87c0-8.43,2.57-17,7.46-17s7.65,8.54,7.65,17a75.66,75.66,0,0,1-1.23,12.87A1.84,1.84,0,0,1,56,57.11Zm-7.5-3.64h6a69.76,69.76,0,0,0,.91-10.71c0-8.27-2.59-13.32-4-13.32-1,0-3.79,4.59-3.79,13.32A71.48,71.48,0,0,0,48.52,53.47Z"/><path class="cls-1" d="M57,62.93H45.85A1.82,1.82,0,0,1,44,61.11a3.26,3.26,0,0,1,.06-.62l1.48-6a1.84,1.84,0,0,1,1.78-1.37h8.32a1.82,1.82,0,0,1,1.79,1.42l1.29,6a1.74,1.74,0,0,1,0,.39v.18A1.82,1.82,0,0,1,57,62.93Zm-8.81-3.64h6.57l-.53-2.52H48.77Z"/><path class="cls-1" d="M55.8,77.21h-9A1.83,1.83,0,0,1,45,75.8l-1.37-5.93A1.87,1.87,0,0,1,44,68.31a1.85,1.85,0,0,1,1.43-.68H57.17a1.84,1.84,0,0,1,1.43.68A1.88,1.88,0,0,1,59,69.87L57.58,75.8A1.81,1.81,0,0,1,55.8,77.21Zm-7.52-3.65h6.06l.53-2.28H47.76Z"/><path class="cls-1" d="M47.78,70.9a1.83,1.83,0,0,1-1.63-1L37.74,53.43a1.83,1.83,0,0,1,.8-2.47,1.78,1.78,0,0,1,2.46.79l8.4,16.49a1.81,1.81,0,0,1-.79,2.46A1.69,1.69,0,0,1,47.78,70.9Z"/><path class="cls-1" d="M54.85,70.9a1.72,1.72,0,0,1-.85-.2,1.85,1.85,0,0,1-.77-2.48l8.91-16.93a1.8,1.8,0,0,1,2.46-.77A1.83,1.83,0,0,1,65.37,53l-8.9,16.94A1.82,1.82,0,0,1,54.85,70.9Z"/></g></g></svg>