<svg xmlns="http://www.w3.org/2000/svg" viewBox="0 0 103 103"><defs><style>.cls-1{fill:#21a4cc;}</style></defs><g id="Camada_2" data-name="Camada 2"><g id="Camada_2-2" data-name="Camada 2"><path class="cls-1" d="M96.5,103H6.5A6.51,6.51,0,0,1,0,96.5V6.5A6.51,6.51,0,0,1,6.5,0h90A6.51,6.51,0,0,1,103,6.5v90A6.51,6.51,0,0,1,96.5,103ZM6.5,3A3.5,3.5,0,0,0,3,6.5v90A3.5,3.5,0,0,0,6.5,100h90a3.5,3.5,0,0,0,3.5-3.5V6.5A3.5,3.5,0,0,0,96.5,3Z"/><path class="cls-1" d="M67.87,63.48H56.54v-5a5,5,0,1,0-10.07,0v1.26a1.26,1.26,0,0,0,2.51,0V58.45a2.52,2.52,0,0,1,5,0v5H39.81L51.5,42.8,62.12,61.58a1.26,1.26,0,1,0,2.19-1.24L53,40.24l2.16-3.83a1.26,1.26,0,1,0-2.19-1.24L51.5,37.68l-1.42-2.51a1.26,1.26,0,1,0-2.19,1.24l2.17,3.83L36.92,63.48H35.14a1.26,1.26,0,1,0,0,2.52H67.87a1.26,1.26,0,0,0,0-2.52Z"/><path class="cls-1" d="M51.5,77.21A25.71,25.71,0,1,1,77.22,51.5,25.75,25.75,0,0,1,51.5,77.21Zm0-47.76a22.05,22.05,0,1,0,22,22.05A22.08,22.08,0,0,0,51.5,29.45Z"/><path class="cls-1" d="M68.1,68.6a1.88,1.88,0,0,1-1.22-.45L33.19,38.4A1.87,1.87,0,0,1,33,35.8a1.83,1.83,0,0,1,2.6-.16L69.32,65.39a1.85,1.85,0,0,1,.16,2.6A1.82,1.82,0,0,1,68.1,68.6Z"/></g></g></svg>