<svg xmlns="http://www.w3.org/2000/svg" viewBox="0 0 103 103"><defs><style>.cls-1{fill:#21a4cc;}</style></defs><g id="Camada_2" data-name="Camada 2"><g id="Camada_2-2" data-name="Camada 2"><path class="cls-1" d="M96.5,103H6.5A6.51,6.51,0,0,1,0,96.5V6.5A6.51,6.51,0,0,1,6.5,0h90A6.51,6.51,0,0,1,103,6.5v90A6.51,6.51,0,0,1,96.5,103ZM6.5,3A3.5,3.5,0,0,0,3,6.5v90A3.5,3.5,0,0,0,6.5,100h90a3.5,3.5,0,0,0,3.5-3.5V6.5A3.5,3.5,0,0,0,96.5,3Z"/><path class="cls-1" d="M39.13,56.47a1.25,1.25,0,0,1,1.69.26l2.46,3.07A12.42,12.42,0,0,1,46,67.53a1.84,1.84,0,1,0,3.67,0,16.12,16.12,0,0,0-3.51-10l-2.46-3.08a4.91,4.91,0,0,0-6.59-1,4,4,0,0,0-.67.54,11.26,11.26,0,0,1-.38-1.6l-.69-4.15a4.82,4.82,0,0,0-9.58.8v9.1a9.34,9.34,0,0,0,2,5.8l3.91,4.89a6.44,6.44,0,0,1,1.4,4,2.63,2.63,0,0,0,2.62,2.63H47.83a1.84,1.84,0,0,0,0-3.68H36.75a10.17,10.17,0,0,0-2.15-5.24L30.69,61.6a5.57,5.57,0,0,1-1.23-3.5V49a1.15,1.15,0,0,1,2.28-.19L32.42,53a15.62,15.62,0,0,0,3.38,7.41,4.78,4.78,0,0,0,.54.65l.44.43,0,0,2.37,2.37a1.84,1.84,0,0,0,2.6-2.6l-2.4-2.4c-.22-.22-.44-.46-.64-.7a1.27,1.27,0,0,1,.39-1.68Z"/><path class="cls-1" d="M75.38,53.2a1.84,1.84,0,0,0,1.84-1.84V49a4.82,4.82,0,0,0-9.58-.79L67,52.35a11.26,11.26,0,0,1-.38,1.6,4.4,4.4,0,0,0-.67-.54,4.91,4.91,0,0,0-6.59,1l-2.46,3.08a16.12,16.12,0,0,0-3.51,10v6a1.84,1.84,0,0,0,1.83,1.84H67.25a2.63,2.63,0,0,0,2.62-2.63,6.44,6.44,0,0,1,1.4-4l3.91-4.89a9.34,9.34,0,0,0,2-5.8,1.84,1.84,0,0,0-3.68,0,5.57,5.57,0,0,1-1.23,3.5L68.4,66.49a10.17,10.17,0,0,0-2.15,5.24H57v-4.2a12.42,12.42,0,0,1,2.71-7.73l2.46-3.07a1.25,1.25,0,0,1,1.69-.26,1.27,1.27,0,0,1,.39,1.68c-.2.24-.42.48-.64.7l-2.4,2.4a1.84,1.84,0,0,0,2.6,2.6l2.37-2.37,0,0,.44-.43a4.78,4.78,0,0,0,.54-.65A15.58,15.58,0,0,0,70.58,53l.68-4.14a1.15,1.15,0,0,1,2.28.19v2.36A1.84,1.84,0,0,0,75.38,53.2Z"/><path class="cls-1" d="M63.16,42.91H39.84a1.83,1.83,0,1,1,0-3.66H63.16a1.83,1.83,0,1,1,0,3.66Z"/><path class="cls-1" d="M51.5,54.57a1.82,1.82,0,0,1-1.84-1.83V29.42a1.84,1.84,0,0,1,3.68,0V52.74A1.83,1.83,0,0,1,51.5,54.57Z"/><path class="cls-1" d="M46.82,38.47a1.92,1.92,0,0,1-1.3-.52L41.3,33.73a1.83,1.83,0,0,1,0-2.6,1.85,1.85,0,0,1,2.6,0l4.23,4.22a1.84,1.84,0,0,1-1.3,3.14Z"/><path class="cls-1" d="M42.59,51.58a1.84,1.84,0,0,1-1.29-3.14l4.22-4.22a1.9,1.9,0,0,1,2.61,0,1.84,1.84,0,0,1,0,2.6l-4.23,4.22A1.9,1.9,0,0,1,42.59,51.58Z"/><path class="cls-1" d="M60.4,51.58A1.85,1.85,0,0,1,59.1,51l-4.22-4.22a1.81,1.81,0,0,1,0-2.58,1.83,1.83,0,0,1,2.6,0l4.22,4.22a1.83,1.83,0,0,1-1.3,3.12Z"/><path class="cls-1" d="M56.18,38.47a1.84,1.84,0,0,1-1.3-3.13l4.22-4.21a1.83,1.83,0,0,1,2.6,0,1.81,1.81,0,0,1,0,2.58l-4.22,4.22A1.83,1.83,0,0,1,56.18,38.47Z"/></g></g></svg>