<svg xmlns="http://www.w3.org/2000/svg" viewBox="0 0 103 103"><defs><style>.cls-1{fill:#21a4cc;}</style></defs><g id="Camada_2" data-name="Camada 2"><g id="Camada_2-2" data-name="Camada 2"><path class="cls-1" d="M96.5,103H6.5A6.51,6.51,0,0,1,0,96.5V6.5A6.51,6.51,0,0,1,6.5,0h90A6.51,6.51,0,0,1,103,6.5v90A6.51,6.51,0,0,1,96.5,103ZM6.5,3A3.5,3.5,0,0,0,3,6.5v90A3.5,3.5,0,0,0,6.5,100h90a3.5,3.5,0,0,0,3.5-3.5V6.5A3.5,3.5,0,0,0,96.5,3Z"/><path class="cls-1" d="M51.5,77.21A25.71,25.71,0,1,1,77.22,51.5,25.75,25.75,0,0,1,51.5,77.21Zm0-47.76a22.05,22.05,0,1,0,22,22.05A22.08,22.08,0,0,0,51.5,29.45Z"/><path class="cls-1" d="M68.36,68.83a1.83,1.83,0,0,1-1.22-.45l-33.95-30A1.87,1.87,0,0,1,33,35.8a1.85,1.85,0,0,1,2.6-.16l33.95,30a1.85,1.85,0,0,1,.16,2.6A1.82,1.82,0,0,1,68.36,68.83Z"/><path class="cls-1" d="M64.91,63.47a2.86,2.86,0,0,0-1.77-1.89,2.16,2.16,0,0,0-.49-.11,3.84,3.84,0,0,0,2-1.79,3.58,3.58,0,0,0-1.71-5,3.87,3.87,0,0,0-2.88-.12l-1.83.63a1.2,1.2,0,0,0-.77-.06,12.47,12.47,0,0,0,0-5,11.84,11.84,0,0,0-4.29-7,1.24,1.24,0,0,0-2,1.13,11,11,0,0,1,0,2.81,11.51,11.51,0,0,1-.64,2.57,9.3,9.3,0,0,0-2.19-2.36,1.23,1.23,0,0,0-1-.2,1.22,1.22,0,0,0-.81.69,12.76,12.76,0,0,0-1.06,4.59,13.58,13.58,0,0,0,.11,2.21l-.13-.17a7,7,0,0,1-.72-6.57A31.85,31.85,0,0,1,51.6,37.27a32,32,0,0,1,3.56,4.35,31.59,31.59,0,0,1,3.31,6.24,7,7,0,0,1,.44,3.48,1.23,1.23,0,1,0,2.43.32,9.34,9.34,0,0,0-.59-4.7,34.28,34.28,0,0,0-3.56-6.72,34.91,34.91,0,0,0-4.74-5.58,1.23,1.23,0,0,0-1.69,0A35,35,0,0,0,46,40.24,34.24,34.24,0,0,0,42.46,47a9.48,9.48,0,0,0,.28,7.6,3.74,3.74,0,0,0-4.45,2.33,3.59,3.59,0,0,0,.22,2.85,3.78,3.78,0,0,0,1.81,1.7l-.09.05a3,3,0,0,0-.38.09,2.85,2.85,0,0,0-1.76,1.89,4,4,0,0,0,.07,2.59,3.6,3.6,0,0,0,3.22,2.62,2,2,0,0,0,1.19-.3,1.26,1.26,0,0,0,.27,0l5.48-1.9a1.23,1.23,0,0,0-.8-2.32l-3.33,1.15A4.47,4.47,0,0,0,44,64.05a4.4,4.4,0,0,0-.57-1.1l8.29-2.86a9.77,9.77,0,0,0,6.16-2.19,1.55,1.55,0,0,0,.31,0l2.73-1a1.46,1.46,0,0,1,1.07,0,1.13,1.13,0,0,1,.55,1.59,1.44,1.44,0,0,1-.82.69l-9.78,3.38a1.24,1.24,0,0,0-.43.26,1.22,1.22,0,0,0-.26,2.37l9,3.1a1.27,1.27,0,0,0,.26,0c.11.05.21.12.32.16a2.82,2.82,0,0,0,.86.14,3.07,3.07,0,0,0,1.69-.54,4.29,4.29,0,0,0,1.62-4.67ZM48.2,50.54a5.36,5.36,0,0,1,.34.49,6.87,6.87,0,0,1,.82,1.78,1.24,1.24,0,0,0,1,.85,1.22,1.22,0,0,0,1.19-.54,13.6,13.6,0,0,0,2.11-5.71s0-.1,0-.15a9.48,9.48,0,0,1,1.39,3.36,10.07,10.07,0,0,1-.85,6.46s0,.06,0,.09a7.79,7.79,0,0,1-2.61.47h-.2a7.32,7.32,0,0,1-2.62-.51,10.49,10.49,0,0,1-.85-4.62A10.63,10.63,0,0,1,48.2,50.54Zm-7.59,7.15A1.29,1.29,0,0,1,42.29,57l2.78,1a1.37,1.37,0,0,0,.4,0,9.35,9.35,0,0,0,1.68,1.07L44,60.15l-2.49-.86a1.42,1.42,0,0,1-.8-.68A1.19,1.19,0,0,1,40.61,57.69Zm-.14,7.57a1.7,1.7,0,0,1,0-1,.49.49,0,0,1,.22-.32h.07c.23,0,.69.31.91,1a1.63,1.63,0,0,1,0,1,.52.52,0,0,1-.22.32C41.26,66.29,40.72,66,40.47,65.26ZM59,64.05a4.38,4.38,0,0,0-.23,1.22L55.26,64l4.85-1.67A4.32,4.32,0,0,0,59,64.05Zm3.48,1.21a1.74,1.74,0,0,1-.6.84.55.55,0,0,1-.38.12c-.09,0-.17-.16-.23-.32a1.7,1.7,0,0,1,0-1h0A1.68,1.68,0,0,1,62,64a.55.55,0,0,1,.31-.12h.06a.46.46,0,0,1,.23.32A1.71,1.71,0,0,1,62.52,65.26Z"/></g></g></svg>