<svg xmlns="http://www.w3.org/2000/svg" viewBox="0 0 103 103"><defs><style>.cls-1{fill:#21a4cc;}</style></defs><g id="Camada_2" data-name="Camada 2"><g id="Camada_2-2" data-name="Camada 2"><path class="cls-1" d="M96.5,103H6.5A6.51,6.51,0,0,1,0,96.5V6.5A6.51,6.51,0,0,1,6.5,0h90A6.51,6.51,0,0,1,103,6.5v90A6.51,6.51,0,0,1,96.5,103ZM6.5,3A3.5,3.5,0,0,0,3,6.5v90A3.5,3.5,0,0,0,6.5,100h90a3.5,3.5,0,0,0,3.5-3.5V6.5A3.5,3.5,0,0,0,96.5,3Z"/><path class="cls-1" d="M51.5,77.21A25.71,25.71,0,1,1,77.22,51.5,25.75,25.75,0,0,1,51.5,77.21Zm0-47.76a22.05,22.05,0,1,0,22,22.05A22.08,22.08,0,0,0,51.5,29.45Z"/><path class="cls-1" d="M68.43,68.88a1.87,1.87,0,0,1-1.22-.44l-34-30A1.87,1.87,0,0,1,33,35.78a1.82,1.82,0,0,1,2.59-.16l34,30.05a1.86,1.86,0,0,1,.15,2.6A1.77,1.77,0,0,1,68.43,68.88Z"/><path class="cls-1" d="M62.19,42.1H55.43a1.3,1.3,0,1,1,0-2.59h6.76a1.3,1.3,0,1,1,0,2.59Z"/><path class="cls-1" d="M51.63,45.56H46.52a1.3,1.3,0,0,1-1.3-1.29V37.36a1.3,1.3,0,0,1,1.3-1.3h4.95a1.3,1.3,0,1,1,0,2.59H47.82V43h3.81a1.3,1.3,0,1,1,0,2.59Z"/><path class="cls-1" d="M51,39.08a1.76,1.76,0,0,0-1.81,1.69A1.82,1.82,0,1,0,51,39.08Zm-.77,1.69a.78.78,0,1,1,1.55,0C51.75,41.68,50.2,41.68,50.2,40.77Z"/><path class="cls-1" d="M51.75,40.77c0,.91-1.55.91-1.55,0a.78.78,0,1,1,1.55,0Z"/><path class="cls-1" d="M56.77,38.51A1.3,1.3,0,0,1,56.38,36l3.18-1a1.3,1.3,0,0,1,.78,2.48l-3.19,1A1.24,1.24,0,0,1,56.77,38.51Z"/><path class="cls-1" d="M59.79,47.31a1.3,1.3,0,0,1-.61-.14l-3.32-1.75a1.31,1.31,0,0,1-.54-1.76,1.3,1.3,0,0,1,1.76-.55l3.31,1.75a1.3,1.3,0,0,1,.54,1.76A1.27,1.27,0,0,1,59.79,47.31Z"/><path class="cls-1" d="M53.4,69.65H44.76a1.29,1.29,0,0,1-1.3-1.3V52.11a1.29,1.29,0,0,1,1.3-1.29H53.4a1.29,1.29,0,0,1,1.3,1.29V68.35A1.29,1.29,0,0,1,53.4,69.65Zm-7.34-2.59h6V53.41h-6Z"/><path class="cls-1" d="M51.13,59.25H47a3.58,3.58,0,0,1-3.58-3.56V50.74A3.58,3.58,0,0,1,47,47.17h4.09a3.57,3.57,0,0,1,3.57,3.57v4.95A3.57,3.57,0,0,1,51.13,59.25ZM47,49.75a1,1,0,0,0-1,1v4.95a1,1,0,0,0,1,1h4.09a1,1,0,0,0,1-1V50.74a1,1,0,0,0-1-1Z"/></g></g></svg>