<svg xmlns="http://www.w3.org/2000/svg" viewBox="0 0 103 103"><defs><style>.cls-1{fill:#21a4cc;}</style></defs><g id="Camada_2" data-name="Camada 2"><g id="Camada_2-2" data-name="Camada 2"><path class="cls-1" d="M96.5,103H6.5A6.51,6.51,0,0,1,0,96.5V6.5A6.51,6.51,0,0,1,6.5,0h90A6.51,6.51,0,0,1,103,6.5v90A6.51,6.51,0,0,1,96.5,103ZM6.5,3A3.5,3.5,0,0,0,3,6.5v90A3.5,3.5,0,0,0,6.5,100h90a3.5,3.5,0,0,0,3.5-3.5V6.5A3.5,3.5,0,0,0,96.5,3Z"/><path class="cls-1" d="M69.57,33.13H59.76a7.35,7.35,0,1,0-14.69,0H38.48a4.88,4.88,0,0,0-3.8,1.8l-5.06,6.2a4.78,4.78,0,0,0,0,6l5.06,6.2a4.87,4.87,0,0,0,3.8,1.79H56.09V73.54H48.74V60.68a1.84,1.84,0,0,0-3.67,0V73.54H43.23a1.84,1.84,0,1,0,0,3.68H61.6a1.84,1.84,0,1,0,0-3.68H59.76V53.34a1.83,1.83,0,0,0-1.83-1.84H38.48a1.28,1.28,0,0,1-1-.44l-5.06-6.2a1.1,1.1,0,0,1,0-1.41l5.06-6.2a1.26,1.26,0,0,1,1-.45H69.57A1.18,1.18,0,0,1,70.78,38v12.4a1.18,1.18,0,0,1-1.21,1.15h-4.3a1.84,1.84,0,0,0,0,3.67h4.3a4.86,4.86,0,0,0,4.89-4.82V38A4.86,4.86,0,0,0,69.57,33.13Zm-20.83,0a3.68,3.68,0,0,1,7.35,0Z"/></g></g></svg>