<svg xmlns="http://www.w3.org/2000/svg" viewBox="0 0 103 103"><defs><style>.cls-1{fill:#21a4cc;}</style></defs><g id="Camada_2" data-name="Camada 2"><g id="Camada_2-2" data-name="Camada 2"><path class="cls-1" d="M96.5,103H6.5A6.51,6.51,0,0,1,0,96.5V6.5A6.51,6.51,0,0,1,6.5,0h90A6.51,6.51,0,0,1,103,6.5v90A6.51,6.51,0,0,1,96.5,103ZM6.5,3A3.5,3.5,0,0,0,3,6.5v90A3.5,3.5,0,0,0,6.5,100h90a3.5,3.5,0,0,0,3.5-3.5V6.5A3.5,3.5,0,0,0,96.5,3Z"/><path class="cls-1" d="M54.87,52.91a1.63,1.63,0,0,1-1.57-2.16l4.94-14.87a1.6,1.6,0,0,1,2.08-1,1.64,1.64,0,0,1,1,2.08L56.43,51.78A1.65,1.65,0,0,1,54.87,52.91Z"/><path class="cls-1" d="M56.08,67.77H47.43l-4-14.49a5,5,0,0,0-9.69,2.29L36.3,68.1a1.65,1.65,0,0,0,3.24-.65L37,54.92a1.68,1.68,0,0,1,3.27-.77l4,14.61a3.14,3.14,0,0,0,3,2.32h8.77a1.65,1.65,0,0,1,0,3.3H40.92a1.65,1.65,0,0,0-3.21.78,3.15,3.15,0,0,0,3.08,2.52H56.08a5,5,0,0,0,0-9.91Z"/><path class="cls-1" d="M65.15,63.58a7.43,7.43,0,0,0-5.47-2.41h-5a.27.27,0,0,1-.28-.28V56.47a5.21,5.21,0,0,0-5.21-5.2H46.9a1.65,1.65,0,0,0,0,3.3h2.32a1.91,1.91,0,0,1,1.91,1.9v4.42a3.58,3.58,0,0,0,3.58,3.58h5A4.11,4.11,0,0,1,63.77,69l-.88,7.27a1.66,1.66,0,0,0,1.5,1.8h.15a1.65,1.65,0,0,0,1.64-1.5l.88-7.28A7.41,7.41,0,0,0,65.15,63.58Z"/><path class="cls-1" d="M47.82,49.61a6.6,6.6,0,1,0-6.6-6.6A6.62,6.62,0,0,0,47.82,49.61Zm0-9.9a3.3,3.3,0,1,1-3.3,3.3A3.31,3.31,0,0,1,47.82,39.71Z"/><path class="cls-1" d="M67.65,35.87a1.9,1.9,0,0,1-.4,0L37.16,28.21A1.64,1.64,0,1,1,38,25l30.09,7.61a1.64,1.64,0,0,1-.4,3.24Z"/><path class="cls-1" d="M59.8,42a5.62,5.62,0,1,1,5.62-5.63A5.63,5.63,0,0,1,59.8,42Zm0-8a2.33,2.33,0,1,0,2.31,2.32A2.33,2.33,0,0,0,59.8,34.08Z"/></g></g></svg>