<svg xmlns="http://www.w3.org/2000/svg" viewBox="0 0 103 103"><defs><style>.cls-1{fill:#21a4cc;}</style></defs><g id="Camada_2" data-name="Camada 2"><g id="Camada_2-2" data-name="Camada 2"><path class="cls-1" d="M96.5,103H6.5A6.51,6.51,0,0,1,0,96.5V6.5A6.51,6.51,0,0,1,6.5,0h90A6.51,6.51,0,0,1,103,6.5v90A6.51,6.51,0,0,1,96.5,103ZM6.5,3A3.5,3.5,0,0,0,3,6.5v90A3.5,3.5,0,0,0,6.5,100h90a3.5,3.5,0,0,0,3.5-3.5V6.5A3.5,3.5,0,0,0,96.5,3Z"/><path class="cls-1" d="M66.94,72A10.27,10.27,0,1,1,77.22,61.73,10.26,10.26,0,0,1,66.94,72Zm0-16.86a6.6,6.6,0,1,0,6.59,6.6A6.61,6.61,0,0,0,66.94,55.13Z"/><path class="cls-1" d="M36,72A10.29,10.29,0,0,1,25.78,61.82,10.28,10.28,0,1,1,36,72Zm0-16.84a6.59,6.59,0,1,0,6.69,6.69A6.68,6.68,0,0,0,36,55.13Z"/><path class="cls-1" d="M58.77,66.28h-14a1.83,1.83,0,0,1-1.84-1.83V59a1.83,1.83,0,0,1,1.84-1.83h14A1.84,1.84,0,0,1,60.62,59v5.46A1.84,1.84,0,0,1,58.77,66.28ZM46.58,62.61H56.93V60.83H46.58Z"/><path class="cls-1" d="M58.51,60.83h-14A1.84,1.84,0,0,1,42.63,59V42.74a1.83,1.83,0,0,1,1.84-1.83h14a1.83,1.83,0,0,1,1.84,1.83V59A1.83,1.83,0,0,1,58.51,60.83ZM46.32,57.16H56.67V44.58H46.32Z"/><path class="cls-1" d="M44.5,63.66a1.84,1.84,0,0,1-1.85-1.84A6.7,6.7,0,0,0,36,55.13a6.77,6.77,0,0,0-5.86,3.72,1.82,1.82,0,0,1-2.3.83,1.87,1.87,0,0,1-1.1-2.2l5.77-21.34a1.85,1.85,0,0,1,1.78-1.35H44.5a1.83,1.83,0,0,1,1.84,1.84V61.82A1.83,1.83,0,0,1,44.5,63.66ZM36,51.45a10.3,10.3,0,0,1,6.69,2.45V38.46h-7L31.92,52.32A10,10,0,0,1,36,51.45Z"/><path class="cls-1" d="M58.8,63.66A1.84,1.84,0,0,1,57,61.82V36.64a1.84,1.84,0,0,1,1.85-1.83H69.05a1.85,1.85,0,0,1,1.78,1.35l5.76,21.32a1.85,1.85,0,0,1-3.41,1.35,6.61,6.61,0,0,0-12.54,3A1.84,1.84,0,0,1,58.8,63.66Zm1.84-25.18V53.9a10.49,10.49,0,0,1,10.73-1.58L67.63,38.48Z"/><path class="cls-1" d="M42.31,37.18H37.68A1.84,1.84,0,0,1,35.86,35l.42-2.5A1.83,1.83,0,0,1,38.09,31h4.63a1.81,1.81,0,0,1,1.4.65,1.78,1.78,0,0,1,.42,1.47l-.41,2.51A1.83,1.83,0,0,1,42.31,37.18Z"/><path class="cls-1" d="M66.81,37.18H62.17a1.84,1.84,0,0,1-1.82-1.53l-.41-2.5a1.82,1.82,0,0,1,.41-1.49A1.84,1.84,0,0,1,61.76,31h4.63a1.84,1.84,0,0,1,1.82,1.53l.41,2.5a1.85,1.85,0,0,1-.41,1.5A1.83,1.83,0,0,1,66.81,37.18Z"/></g></g></svg>