<svg xmlns="http://www.w3.org/2000/svg" viewBox="0 0 103 103"><defs><style>.cls-1{fill:#21a4cc;}</style></defs><g id="Camada_2" data-name="Camada 2"><g id="Camada_2-2" data-name="Camada 2"><path class="cls-1" d="M96.5,103H6.5A6.51,6.51,0,0,1,0,96.5V6.5A6.51,6.51,0,0,1,6.5,0h90A6.51,6.51,0,0,1,103,6.5v90A6.51,6.51,0,0,1,96.5,103ZM6.5,3A3.5,3.5,0,0,0,3,6.5v90A3.5,3.5,0,0,0,6.5,100h90a3.5,3.5,0,0,0,3.5-3.5V6.5A3.5,3.5,0,0,0,96.5,3Z"/><path class="cls-1" d="M41.6,54.37A1.7,1.7,0,0,1,40,53.13L36.26,40.24c-1.2,2.91-2.17,5.36-2.3,5.81a1.65,1.65,0,0,1-1.78,1.37c-1.63,0-1.78-.38-6.35-19.52a1.69,1.69,0,0,1,.32-1.46,1.73,1.73,0,0,1,1.35-.65h48a1.73,1.73,0,0,1,1.34.64,1.7,1.7,0,0,1,.33,1.45c-.56,2.42-2,9.18-1.9,11.59,0,1.86-1,2.29-1.51,2.39-1.05.27-1.83.16-3.6-3.41A80.47,80.47,0,0,0,68.23,47c-.26,1.76-1,2.53-2.25,2.57s-2.51-.42-4.9-13.77l-3.33,1.56a1.74,1.74,0,0,1-1.67-.13l-2.71-1.79a1.68,1.68,0,0,1-2.2.48,1.71,1.71,0,0,1-.7-2.31l.77-1.44a1.69,1.69,0,0,1,1.1-.85,1.64,1.64,0,0,1,1.36.23l3.47,2.29,4.48-2.1a1.75,1.75,0,0,1,1.53,0A1.71,1.71,0,0,1,64.07,33c.51,2.91,1.13,6.13,1.72,8.72,1-4.47,2.33-8.52,2.4-8.74a2.1,2.1,0,0,1,1.63-1.19,1.7,1.7,0,0,1,1.59,1.06c.27.65.57,1.35.88,2,.32-2,.75-4.15,1.08-5.67H29.68c1,4.08,2,8.22,2.79,11.23.9-2.21,1.9-4.62,2.5-6.06a1.89,1.89,0,0,1,1.69-1,1.72,1.72,0,0,1,1.55,1.24l3.07,10.73,1.91-9.84a1.74,1.74,0,0,1,1.05-1.26,1.7,1.7,0,0,1,1.63.2l3.37,2.42a1.71,1.71,0,0,1,2.1,2.41l-.36.67a1.76,1.76,0,0,1-1.12.87,1.65,1.65,0,0,1-1.38-.29l-2.43-1.74L43.28,53a1.71,1.71,0,0,1-1.61,1.37Z"/><path class="cls-1" d="M72.89,77.21a21.72,21.72,0,0,1-2.54-.35A45.44,45.44,0,0,0,63.59,76,9.45,9.45,0,0,1,58,74a6.62,6.62,0,0,0-.82-.52,6.39,6.39,0,0,1-1.08.82,12.61,12.61,0,0,1-3.27,1.74,10.31,10.31,0,0,1-4.6.18c-.42,0-.81-.1-1.17-.11a5.55,5.55,0,0,1-2.82-.89c-.16-.08-.29-.17-.42-.22a1.62,1.62,0,0,1-1.62-1.71A1.79,1.79,0,0,1,44,71.63a3.84,3.84,0,0,1,1.92.64,6.63,6.63,0,0,0,2.74.59,7,7,0,0,0,3.16-.07,9,9,0,0,0,2.34-1.31,6.07,6.07,0,0,1,3.19-1.37,4.53,4.53,0,0,1,2.57,1.09,6.22,6.22,0,0,0,3.67,1.42,48.68,48.68,0,0,1,7.35.85,19.83,19.83,0,0,0,2,.32c-.15,0,.2-.38.41-.6A3.1,3.1,0,0,1,75.49,72h.06a1.72,1.72,0,0,1,1.67,1.76,1.74,1.74,0,0,1-1.15,1.57l-.31.3A4.19,4.19,0,0,1,72.89,77.21Z"/><path class="cls-1" d="M27.5,77.21a1.71,1.71,0,0,1-1.07-3c.32-.27,3.26-2.53,6-2.53a12.67,12.67,0,0,1,4.09,1c.76.29,2.08.57,2.46.69a1.67,1.67,0,0,1,2,1.35,1.7,1.7,0,0,1-1.32,2,8.52,8.52,0,0,1-4.32-.81,10.33,10.33,0,0,0-2.92-.8c-1.2,0-3.1,1.2-3.83,1.79A1.72,1.72,0,0,1,27.5,77.21Z"/><path class="cls-1" d="M37.48,75.4a1.77,1.77,0,0,1-1.34-.62c-.6-.69-1-1.86-1.4-3.92-.61,1.38-1.14,2.41-1.18,2.5a1.71,1.71,0,0,1-3.06-1.54,42.31,42.31,0,0,0,2.71-6.65c.38-1.61,1.43-1.79,1.92-1.79h0c1.65,0,1.91,1.42,2.54,4.79a24.93,24.93,0,0,0,1.06,4.43A1.68,1.68,0,0,1,38.58,75,1.62,1.62,0,0,1,37.48,75.4Z"/><path class="cls-1" d="M60.7,75.37a1.71,1.71,0,0,1-1.52-.92L55.84,68l-2.32.84a1.72,1.72,0,0,1-2.07-.74l-.87,5.81a1.82,1.82,0,0,1-1.95,1.44,1.71,1.71,0,0,1-1.45-1.94l1.67-11.15a1.72,1.72,0,0,1,3.24-.52l1.69,3.36,2.32-.83a1.7,1.7,0,0,1,2.1.82l4,7.78a1.72,1.72,0,0,1-.73,2.31A1.59,1.59,0,0,1,60.7,75.37Z"/><path class="cls-1" d="M73.32,76.62a1.71,1.71,0,0,1-1.71-1.52L71,69.16a1.77,1.77,0,0,1-1.71-.62L67.76,74.4a1.75,1.75,0,0,1-2.09,1.22,1.72,1.72,0,0,1-1.23-2.1l3.35-13a1.7,1.7,0,0,1,1.66-1.27,1.76,1.76,0,0,1,1.69,1.4L71.93,65a1.61,1.61,0,0,1,1.38.15,1.75,1.75,0,0,1,.84,1.3L75,74.73a1.72,1.72,0,0,1-1.52,1.89Z"/></g></g></svg>