<svg xmlns="http://www.w3.org/2000/svg" viewBox="0 0 103 103"><defs><style>.cls-1{fill:#21a4cc;}</style></defs><g id="Camada_2" data-name="Camada 2"><g id="Camada_2-2" data-name="Camada 2"><path class="cls-1" d="M96.5,103H6.5A6.51,6.51,0,0,1,0,96.5V6.5A6.51,6.51,0,0,1,6.5,0h90A6.51,6.51,0,0,1,103,6.5v90A6.51,6.51,0,0,1,96.5,103ZM6.5,3A3.5,3.5,0,0,0,3,6.5v90A3.5,3.5,0,0,0,6.5,100h90a3.5,3.5,0,0,0,3.5-3.5V6.5A3.5,3.5,0,0,0,96.5,3Z"/><path class="cls-1" d="M64.17,43.6A10,10,0,0,0,62.34,39l-3.49-4.59v-6.8A2,2,0,0,0,57,25.78H46a1.84,1.84,0,0,0-1.84,1.83v6.8L40.66,39a10.55,10.55,0,0,0-2,4.6v27a6.6,6.6,0,0,0,6.62,6.62h12.3a6.75,6.75,0,0,0,6.8-6.62V44.15C64.36,44,64.17,43.78,64.17,43.6ZM47.82,29.44h7.36v3.68H47.82ZM43.61,41.21l3.3-4.41h9.18l3.31,4.41.55,1.1H42.87A3.55,3.55,0,0,1,43.61,41.21ZM60.69,70.6a3.07,3.07,0,0,1-3.13,2.94H45.26a2.92,2.92,0,0,1-2.95-2.94V68H60.69Zm0-6.25H42.31V62.52H60.69Zm0-5.5H42.31V51.49H60.69Zm0-11H42.31V46H60.69Z"/></g></g></svg>