<svg xmlns="http://www.w3.org/2000/svg" viewBox="0 0 103 103"><defs><style>.cls-1{fill:#21a4cc;}</style></defs><g id="Camada_2" data-name="Camada 2"><g id="Camada_2-2" data-name="Camada 2"><path class="cls-1" d="M96.5,103H6.5A6.51,6.51,0,0,1,0,96.5V6.5A6.51,6.51,0,0,1,6.5,0h90A6.51,6.51,0,0,1,103,6.5v90A6.51,6.51,0,0,1,96.5,103ZM6.5,3A3.5,3.5,0,0,0,3,6.5v90A3.5,3.5,0,0,0,6.5,100h90a3.5,3.5,0,0,0,3.5-3.5V6.5A3.5,3.5,0,0,0,96.5,3Z"/><path class="cls-1" d="M51.5,77.22A25.72,25.72,0,1,1,77.23,51.5,25.75,25.75,0,0,1,51.5,77.22Zm0-47.78a22.06,22.06,0,1,0,22,22.06A22.09,22.09,0,0,0,51.5,29.44Z"/><path class="cls-1" d="M68.43,68.89a1.83,1.83,0,0,1-1.22-.45l-34-30A1.86,1.86,0,0,1,33,35.8a1.83,1.83,0,0,1,2.61-.16l34,30a1.85,1.85,0,0,1,.16,2.6A1.82,1.82,0,0,1,68.43,68.89Z"/><path class="cls-1" d="M67.6,50.05l-6.43-4.29a2.21,2.21,0,0,0-2.78.27l-2.16,2.15a.41.41,0,0,1-.49.08.43.43,0,0,1-.21-.54l1.22-3a2.72,2.72,0,0,0-1.67-3.59L54,40.7a2.74,2.74,0,0,0-2.79.66l-3.25,3.26a.45.45,0,0,1-.5.08.44.44,0,0,1-.21-.55L48.48,41a2.75,2.75,0,0,1,1.32-1.43l4.34-2.17a1.36,1.36,0,0,1,1.45.15l1.57,1.26a19.19,19.19,0,0,0,2.05,1.42c.42.24.84.47,1.28.68a18.29,18.29,0,0,0,2.54,1c.54.16,1.08.3,1.63.41l2,.41a1.19,1.19,0,0,0,.47-2.33L65.13,40q-.72-.15-1.41-.36a14.7,14.7,0,0,1-2.2-.85c-.38-.19-.74-.38-1.1-.59a14.68,14.68,0,0,1-1.77-1.23l-1.58-1.25a3.74,3.74,0,0,0-4-.43l-4.34,2.17a5.17,5.17,0,0,0-2.47,2.68L45,43.27a2.81,2.81,0,0,0,.44,2.81l-.85,1.28a3.29,3.29,0,0,0,1,4.64,1.22,1.22,0,0,0,.61.17A1.19,1.19,0,0,0,46.86,50a.91.91,0,0,1-.29-1.28l1-1.56a2.81,2.81,0,0,0,2-.82L52.85,43a.37.37,0,0,1,.36-.08l1.12.37a.35.35,0,0,1,.21.46l-1.22,3.05a2.83,2.83,0,0,0,1.36,3.55,2.8,2.8,0,0,0,3.24-.53l0,0,.61.93a.87.87,0,0,1,.11.77.86.86,0,0,1-.52.57L55.9,53a.91.91,0,0,1-1-.2l-.34-.34a3.25,3.25,0,0,0-3.78-.61.89.89,0,0,1-.45.09.86.86,0,0,1-.42-.13,1.19,1.19,0,1,0-1.23,2,3.32,3.32,0,0,0,3.16.12.9.9,0,0,1,1,.17l.34.34a3.28,3.28,0,0,0,2.31,1,3.2,3.2,0,0,0,1.22-.24l2.27-.9a3.29,3.29,0,0,0,1.51-4.87l-.88-1.32.29-.29L66.28,52a1.19,1.19,0,1,0,1.32-2Z"/><path class="cls-1" d="M58.63,61H57a1.15,1.15,0,0,1-.71-.24l-2-1.52a9.11,9.11,0,0,0-5.41-1.8H45.72a6.28,6.28,0,0,0-5,2.5l-1.33,1.77a1.2,1.2,0,0,1-1,.48,3.57,3.57,0,0,0-3.57,3.56,2.39,2.39,0,0,0,2.38,2.38h5.94a1.19,1.19,0,1,0,0-2.38H37.24a1.18,1.18,0,0,1,1.19-1.18,3.6,3.6,0,0,0,2.85-1.43l1.33-1.77a3.89,3.89,0,0,1,3.11-1.56h3.17a6.73,6.73,0,0,1,4,1.33l2,1.52a3.63,3.63,0,0,0,2.14.72h1.59a1.18,1.18,0,0,1,1.18,1.19v1.18H47.93a1.19,1.19,0,0,0,0,2.38H59.81a2.38,2.38,0,0,0,2.38-2.38V64.57A3.57,3.57,0,0,0,58.63,61Z"/></g></g></svg>