<svg xmlns="http://www.w3.org/2000/svg" viewBox="0 0 103 103"><defs><style>.cls-1{fill:#21a4cc;}</style></defs><g id="Camada_2" data-name="Camada 2"><g id="Camada_2-2" data-name="Camada 2"><path class="cls-1" d="M96.5,103H6.5A6.51,6.51,0,0,1,0,96.5V6.5A6.51,6.51,0,0,1,6.5,0h90A6.51,6.51,0,0,1,103,6.5v90A6.51,6.51,0,0,1,96.5,103ZM6.5,3A3.5,3.5,0,0,0,3,6.5v90A3.5,3.5,0,0,0,6.5,100h90a3.5,3.5,0,0,0,3.5-3.5V6.5A3.5,3.5,0,0,0,96.5,3Z"/><path class="cls-1" d="M69.71,33.31a25.77,25.77,0,0,0-36.39,0,1.84,1.84,0,0,0,2.6,2.6A22,22,0,1,1,31.15,43c.24-.58.5-1.14.79-1.7a1.84,1.84,0,1,0-3.26-1.69c-.33.64-.64,1.3-.92,2a25.73,25.73,0,1,0,41.95-8.3Z"/><path class="cls-1" d="M51.5,62.52a1.83,1.83,0,0,1-1.84-1.83V51.5a1.84,1.84,0,0,1,3.68,0v9.19A1.83,1.83,0,0,1,51.5,62.52Z"/><path class="cls-1" d="M51.5,35a1.83,1.83,0,0,1-1.84-1.83V29.44a1.84,1.84,0,0,1,3.68,0v3.68A1.83,1.83,0,0,1,51.5,35Z"/><path class="cls-1" d="M51.5,75.39a1.83,1.83,0,0,1-1.84-1.83V69.88a1.84,1.84,0,0,1,3.68,0v3.68A1.83,1.83,0,0,1,51.5,75.39Z"/><path class="cls-1" d="M33.13,53.33H29.45a1.83,1.83,0,1,1,0-3.66h3.68a1.83,1.83,0,0,1,0,3.66Z"/><path class="cls-1" d="M73.55,53.33H69.88a1.83,1.83,0,1,1,0-3.66h3.67a1.83,1.83,0,1,1,0,3.66Z"/><path class="cls-1" d="M60.69,44.14a1.9,1.9,0,0,1-1.3-.52,1.83,1.83,0,0,1,0-2.6l2.5-2.51a1.84,1.84,0,1,1,2.61,2.58L62,43.6A1.82,1.82,0,0,1,60.69,44.14Z"/><path class="cls-1" d="M51.5,53.33a1.85,1.85,0,0,1-1.3-.54,1.81,1.81,0,0,1,0-2.58l5.51-5.51a1.83,1.83,0,0,1,2.6,0,1.81,1.81,0,0,1,0,2.58L52.8,52.79A1.82,1.82,0,0,1,51.5,53.33Z"/></g></g></svg>