<svg xmlns="http://www.w3.org/2000/svg" viewBox="0 0 103 103"><defs><style>.cls-1{fill:#21a4cc;}</style></defs><g id="Camada_2" data-name="Camada 2"><g id="Camada_2-2" data-name="Camada 2"><path class="cls-1" d="M96.5,103H6.5A6.51,6.51,0,0,1,0,96.5V6.5A6.51,6.51,0,0,1,6.5,0h90A6.51,6.51,0,0,1,103,6.5v90A6.51,6.51,0,0,1,96.5,103ZM6.5,3A3.5,3.5,0,0,0,3,6.5v90A3.5,3.5,0,0,0,6.5,100h90a3.5,3.5,0,0,0,3.5-3.5V6.5A3.5,3.5,0,0,0,96.5,3Z"/><path class="cls-1" d="M68.29,62.52H68V42.32a16.53,16.53,0,1,0-33.06,0V55.17a1.84,1.84,0,1,0,3.67,0V42.32a12.86,12.86,0,1,1,25.72,0v20.2H60.68V42.32a9.18,9.18,0,1,0-18.36,0v20.2H34.71a5.26,5.26,0,0,0-5.25,5.26V72a5.26,5.26,0,0,0,5.25,5.26H49.66a1.84,1.84,0,0,0,1.84-1.84h1.84a1.84,1.84,0,1,0,3.67,0V66.2H68.29a1.58,1.58,0,0,1,1.58,1.58V72a1.58,1.58,0,0,1-1.58,1.58H66.2a1.84,1.84,0,0,0,0,3.68h2.09A5.26,5.26,0,0,0,73.54,72V67.78A5.26,5.26,0,0,0,68.29,62.52Zm-33.58,11A1.58,1.58,0,0,1,33.13,72V67.78a1.58,1.58,0,0,1,1.58-1.58H47.83v7.34ZM51.5,71.71V68h1.84v3.68Zm3.67-9.19a1.83,1.83,0,0,0-1.83,1.84H51.5a1.84,1.84,0,0,0-1.84-1.84H46V42.32a5.51,5.51,0,1,1,11,0v20.2Z"/></g></g></svg>