<svg xmlns="http://www.w3.org/2000/svg" viewBox="0 0 103 103"><defs><style>.cls-1{fill:#21a4cc;}</style></defs><g id="Camada_2" data-name="Camada 2"><g id="Camada_2-2" data-name="Camada 2"><path class="cls-1" d="M96.5,103H6.5A6.51,6.51,0,0,1,0,96.5V6.5A6.51,6.51,0,0,1,6.5,0h90A6.51,6.51,0,0,1,103,6.5v90A6.51,6.51,0,0,1,96.5,103ZM6.5,3A3.5,3.5,0,0,0,3,6.5v90A3.5,3.5,0,0,0,6.5,100h90a3.5,3.5,0,0,0,3.5-3.5V6.5A3.5,3.5,0,0,0,96.5,3Z"/><path class="cls-1" d="M51.5,77.21A25.71,25.71,0,1,1,77.22,51.5,25.75,25.75,0,0,1,51.5,77.21Zm0-47.76a22.05,22.05,0,1,0,22,22.05A22.08,22.08,0,0,0,51.5,29.45Z"/><path class="cls-1" d="M68.43,68.88a1.83,1.83,0,0,1-1.22-.45l-34-30A1.87,1.87,0,0,1,33,35.8a1.83,1.83,0,0,1,2.6-.16l34,30a1.87,1.87,0,0,1,.16,2.6A1.8,1.8,0,0,1,68.43,68.88Z"/><path class="cls-1" d="M44.78,60.71a3.61,3.61,0,0,1-2.15-.7l-3.09-2.24a7,7,0,0,0-4.14-1.35H32.94a1.43,1.43,0,0,0,0,2.86H35.4a4.23,4.23,0,0,1,2.47.8L41,62.32a6.51,6.51,0,0,0,3.83,1.24,1.43,1.43,0,1,0,0-2.85Z"/><path class="cls-1" d="M70.43,50.88A3.61,3.61,0,0,0,66,50.45l-5.71,3.68a5.88,5.88,0,0,0-5.35-3.42H53a1.7,1.7,0,0,1-1-.31l-2.28-1.65A9.2,9.2,0,0,1,60,50.33a1.38,1.38,0,0,0,1,.38,1.43,1.43,0,0,0,1-2.47,12.09,12.09,0,0,0-6.11-3l-2.85-.14a12,12,0,0,0-6,2,7.76,7.76,0,0,0-2.93-.61H32.94a1.43,1.43,0,0,0,0,2.86H44.05a4.82,4.82,0,0,1,2.81.9l3.47,2.52a4.61,4.61,0,0,0,2.66.86h1.94A3,3,0,0,1,57.49,55H49.71a8.06,8.06,0,0,1-3.48-.8l-1-.49A1.43,1.43,0,0,0,44,56.28l1,.49a10.87,10.87,0,0,0,4.72,1.08H58a5.94,5.94,0,0,0,3.22-1l6.29-4.06a.74.74,0,0,1,.9.09.57.57,0,0,1,.18.46.59.59,0,0,1-.24.43L59.86,60a3.63,3.63,0,0,1-2.15.7H50.07a1.43,1.43,0,0,0,0,2.85h7.64a6.48,6.48,0,0,0,3.82-1.24l8.53-6.19a3.43,3.43,0,0,0,.37-5.25Z"/><path class="cls-1" d="M55.71,39.44a7,7,0,1,0,7.14,7A7,7,0,0,0,55.71,39.44Zm0,10.85a3.86,3.86,0,1,1,3.85-3.86A3.82,3.82,0,0,1,55.71,50.29Z"/></g></g></svg>