<svg xmlns="http://www.w3.org/2000/svg" viewBox="0 0 103 103"><defs><style>.cls-1{fill:#21a4cc;}</style></defs><g id="Camada_2" data-name="Camada 2"><g id="Camada_2-2" data-name="Camada 2"><path class="cls-1" d="M96.5,103H6.5A6.51,6.51,0,0,1,0,96.5V6.5A6.51,6.51,0,0,1,6.5,0h90A6.51,6.51,0,0,1,103,6.5v90A6.51,6.51,0,0,1,96.5,103ZM6.5,3A3.5,3.5,0,0,0,3,6.5v90A3.5,3.5,0,0,0,6.5,100h90a3.5,3.5,0,0,0,3.5-3.5V6.5A3.5,3.5,0,0,0,96.5,3Z"/><path class="cls-1" d="M57,40.4a4.85,4.85,0,0,0,.76.05c3.22,0,6.09-2.75,6.59-6.48a7.86,7.86,0,0,0-1.07-5.26,6,6,0,0,0-4.32-2.88c-3.51-.46-6.81,2.41-7.35,6.43a7.86,7.86,0,0,0,1.08,5.26A6,6,0,0,0,57,40.4ZM55.2,32.75c.25-1.86,1.57-3.29,3-3.29a1.18,1.18,0,0,1,.26,0,2.39,2.39,0,0,1,1.69,1.19,4.23,4.23,0,0,1,.55,2.81c-.26,2-1.73,3.5-3.22,3.28a2.39,2.39,0,0,1-1.69-1.19A4.25,4.25,0,0,1,55.2,32.75Z"/><path class="cls-1" d="M69.87,50.57A4.57,4.57,0,0,0,68,46.92V40.47a1.84,1.84,0,0,0-3.68,0V46h-3.6a1.38,1.38,0,0,1-1.21-.72l-.79-1.43a6.44,6.44,0,0,0-5.64-3.36,5.42,5.42,0,0,0-1.27.13,4.23,4.23,0,0,0-.51.13c0-.08,0-.16,0-.24a2.68,2.68,0,0,0-.07-.27,6,6,0,0,0-2.95-3.55l-2-1a6.07,6.07,0,0,0-8.2,2.65l-4.28,8.32a6.26,6.26,0,0,0-.4,4.71,6.12,6.12,0,0,0,3,3.65l2.84,1.47a4.82,4.82,0,0,0,2.26.56,4.94,4.94,0,0,0,1.27-.19L40.75,61a11.06,11.06,0,0,1-1.25,2l-5.36,6.76a4.63,4.63,0,0,0,3.62,7.54h.16a4.72,4.72,0,0,0,3.34-1.62L48,67.72a6.7,6.7,0,0,0,1.15-1.89h0l2.17,2.61a.9.9,0,0,1,.22.59v3.6a4.6,4.6,0,1,0,9.19,0V66.49a7,7,0,0,0-2-4.95L56.09,59a5.69,5.69,0,0,1-1.6-4.89,10.67,10.67,0,0,0,4.58,1.05h5.29V75.38a1.84,1.84,0,0,0,3.68,0V54.23A4.57,4.57,0,0,0,69.87,50.57ZM44.69,38.85l2,1a2.45,2.45,0,0,1,1.21,1.42,2.16,2.16,0,0,1,.07.94,1.88,1.88,0,0,1-.23.87L46.63,45.3,40.13,42,41.19,40A2.58,2.58,0,0,1,44.69,38.85ZM40.85,53.22,38,51.75a2.57,2.57,0,0,1-1.12-3.44l1.55-3L45,48.57l-2.06,4A1.51,1.51,0,0,1,40.85,53.22Zm4.31,12.11-6.71,7.88a.85.85,0,0,1-.68.33.87.87,0,0,1-.69-.27A1,1,0,0,1,37,72l5.34-6.74A14.15,14.15,0,0,0,44,62.59l.9-1.82h0a2.68,2.68,0,0,0,.31.42l.14.17,0,0s.06.07.08.11A3.18,3.18,0,0,1,45.16,65.33ZM59.07,51.49A7.05,7.05,0,0,1,56,50.76l-.79-.41a2.87,2.87,0,0,0-4,1.66A9.35,9.35,0,0,0,53.5,61.6L56,64.15a3.31,3.31,0,0,1,1,2.34v6.13a.92.92,0,1,1-1.84,0V69a4.67,4.67,0,0,0-1.06-2.94l-5.59-6.67-.05-.07-.41-.5a4.87,4.87,0,0,1-.86-4.68.7.7,0,0,1,.06-.19l1.54-4.13,1.38-3.66a3.1,3.1,0,0,1,1.36-1.6,2.94,2.94,0,0,1,1.56-.44,2.76,2.76,0,0,1,2.44,1.45L56.33,47a5,5,0,0,0,4.43,2.62h3.6v1.84Z"/></g></g></svg>