<svg xmlns="http://www.w3.org/2000/svg" viewBox="0 0 14.38 14.38"><defs><style>.cls-1{fill:none;}</style></defs><g id="Camada_2" data-name="Camada 2"><g id="Camada_2-2" data-name="Camada 2"><rect class="cls-1" width="14.38" height="14.38"></rect><path d="M8.71,4.09h.21a2,2,0,0,0,1.85-1.81,2.24,2.24,0,0,0-.3-1.47A1.73,1.73,0,0,0,9.26,0,2,2,0,0,0,7.2,1.81a2.18,2.18,0,0,0,.31,1.47A1.7,1.7,0,0,0,8.71,4.09ZM8.22,2A1,1,0,0,1,9.05,1h.07a.72.72,0,0,1,.48.33,1.24,1.24,0,0,1,.15.79c-.08.55-.48,1-.9.92a.68.68,0,0,1-.47-.33A1.18,1.18,0,0,1,8.22,2Z"></path><path d="M12.32,6.93a1.26,1.26,0,0,0-.51-1V4.1a.52.52,0,0,0-1,0V5.64h-1a.36.36,0,0,1-.34-.2L9.22,5A1.82,1.82,0,0,0,7.64,4.1a1.34,1.34,0,0,0-.35,0l-.15,0a.17.17,0,0,0,0-.07.19.19,0,0,0,0-.07,1.64,1.64,0,0,0-.82-1l-.56-.28a1.68,1.68,0,0,0-2.29.74L2.24,5.82a1.78,1.78,0,0,0-.11,1.32,1.75,1.75,0,0,0,.85,1l.79.41a1.31,1.31,0,0,0,.63.16,1.43,1.43,0,0,0,.36-.06L4.18,9.83a2.44,2.44,0,0,1-.35.55l-1.5,1.89a1.3,1.3,0,0,0,1,2.11h0a1.33,1.33,0,0,0,.94-.46l1.86-2.2a2,2,0,0,0,.33-.53h0l.61.73a.27.27,0,0,1,.06.17v1a1.29,1.29,0,1,0,2.57,0V11.38A2,2,0,0,0,9.19,10l-.72-.7A1.63,1.63,0,0,1,8,7.92a3,3,0,0,0,1.28.29h1.48v5.65a.52.52,0,1,0,1,0V8A1.26,1.26,0,0,0,12.32,6.93Zm-7-3.28.56.3a.62.62,0,0,1,.34.39.5.5,0,0,1,0,.27.53.53,0,0,1-.06.24l-.31.61L4,4.54,4.31,4A.72.72,0,0,1,5.28,3.65Zm-1.07,4-.79-.41a.69.69,0,0,1-.35-.43.69.69,0,0,1,0-.53l.43-.85,1.82.92L4.79,7.49A.43.43,0,0,1,4.21,7.67Zm1.2,3.38L3.54,13.26a.26.26,0,0,1-.19.09.27.27,0,0,1-.19-.08.26.26,0,0,1,0-.36L4.63,11a4,4,0,0,0,.47-.73l.25-.51h0l.09.12,0,0h0s0,0,0,0A.88.88,0,0,1,5.41,11.05ZM9.3,7.19A2,2,0,0,1,8.44,7l-.22-.11a.76.76,0,0,0-.66,0,.79.79,0,0,0-.45.48A2.62,2.62,0,0,0,7.75,10l.71.71a1,1,0,0,1,.27.66v1.71a.25.25,0,0,1-.26.26.26.26,0,0,1-.26-.26v-1a1.31,1.31,0,0,0-.29-.83L6.36,9.4l0,0-.11-.14A1.33,1.33,0,0,1,6,7.93a.43.43,0,0,1,0,0l.43-1.16.39-1a.89.89,0,0,1,.38-.45.82.82,0,0,1,.43-.12.79.79,0,0,1,.69.41l.22.4a1.41,1.41,0,0,0,1.24.73h1v.52Z"></path></g></g></svg>