<svg xmlns="http://www.w3.org/2000/svg" viewBox="0 0 14.38 14.38"><defs><style>.cls-1{fill:none;}</style></defs><g id="Camada_2" data-name="Camada 2"></g><g id="Camada_2-2" data-name="Camada 2"><rect class="cls-1" width="14.38" height="14.38"></rect><path d="M14.14,12.09v1.59a.68.68,0,0,1-.69.7H1a.73.73,0,0,1-.75-.7V12.09A.72.72,0,0,1,1,11.4h.25a6.13,6.13,0,0,1,2-4.83.61.61,0,0,1,.4-.14v.1a2.89,2.89,0,0,0,.15.94,5.38,5.38,0,0,0-1.54,4.37.33.33,0,0,1-.1.35.45.45,0,0,1-.4.2H1.23v1H13.15v-1h-.5a.42.42,0,0,1-.34-.2.33.33,0,0,1-.1-.35,5.58,5.58,0,0,0-1.54-4.37,3.06,3.06,0,0,0,.14-.94V6.18A6.36,6.36,0,0,1,13.2,11.4h.25A.67.67,0,0,1,14.14,12.09Z"></path><path d="M3.91,6.57a.48.48,0,0,1,0,.7c-.05.05-.15.1-.15.2a2.89,2.89,0,0,1-.15-.94v-.1A.46.46,0,0,1,3.91,6.57Z"></path><path d="M10.81,6.18v.35a3.06,3.06,0,0,1-.14.94,3.77,3.77,0,0,0-.6-.6,1.63,1.63,0,0,0,0-.49,3,3,0,0,0-.1-.7A9.07,9.07,0,0,1,10.81,6.18Z"></path><path d="M3.73,11.88a.5.5,0,0,0,.5.5h6a.5.5,0,1,0,0-1h-6A.5.5,0,0,0,3.73,11.88Z"></path><path d="M10.18,6.15v.28a2.59,2.59,0,0,1-.12.78,3.56,3.56,0,0,1-.61,1.15.53.53,0,0,1-.37.21.47.47,0,0,1-.33-.13.49.49,0,0,1-.08-.69,2.57,2.57,0,0,0,.49-1.32,2,2,0,0,0-2-2,1.94,1.94,0,0,0-1.92,2,1.85,1.85,0,0,0,.49,1.28.51.51,0,0,1,0,.69.51.51,0,0,1-.74,0,2.47,2.47,0,0,1-.61-1.15,2.41,2.41,0,0,1-.12-.78V6.35a2.94,2.94,0,0,1,2.94-2.9A3,3,0,0,1,10.18,6.15Z"></path><path d="M7.21,7.47A1.21,1.21,0,0,1,6,6.26a.5.5,0,1,1,1,0c0,.25.44.25.44,0a.5.5,0,0,1,.5-.5.5.5,0,0,1,.5.5A1.22,1.22,0,0,1,7.21,7.47Z"></path><path d="M7.19,3.12a.49.49,0,0,1-.5-.49V.49A.49.49,0,0,1,7.19,0a.5.5,0,0,1,.5.49V2.63A.49.49,0,0,1,7.19,3.12Z"></path><path d="M9.76,3.73a.5.5,0,0,1-.35-.85L10.34,2A.48.48,0,0,1,11,2a.49.49,0,0,1,0,.69l-.93.93A.47.47,0,0,1,9.76,3.73Z"></path><path d="M4.61,3.73a.5.5,0,0,1-.35-.15l-.92-.93a.47.47,0,0,1,0-.69A.48.48,0,0,1,4,2L5,2.88a.5.5,0,0,1,0,.7A.51.51,0,0,1,4.61,3.73Z"></path><path d="M13,5.64H10.94a.5.5,0,0,1,0-1H13a.5.5,0,1,1,0,1Z"></path><path d="M3.48,5.64h-2a.5.5,0,1,1,0-1H3.48a.5.5,0,1,1,0,1Z"></path></g></svg>