<svg xmlns="http://www.w3.org/2000/svg" viewBox="0 0 14.38 14.38"><defs><style>.cls-1{fill:none;}</style></defs><g id="Camada_2" data-name="Camada 2"><g id="Camada_2-2" data-name="Camada 2"><rect class="cls-1" width="14.38" height="14.38"></rect><path d="M4.36,2.46a1.9,1.9,0,0,1-.29,1,.48.48,0,0,1-.67.14.47.47,0,0,1-.14-.67.94.94,0,0,0,.14-.47,1,1,0,1,0-2,0,1,1,0,0,0,1,1,.46.46,0,0,1,.48.48.46.46,0,0,1-.48.48,1.94,1.94,0,1,1,2-1.91Z"></path><path d="M4.36,4.89H2.83a.48.48,0,0,0-.48.48.52.52,0,0,0,.48.48h1v4.21H1V5.85h.58A.51.51,0,0,0,2,5.37a.47.47,0,0,0-.47-.48H.48A.48.48,0,0,0,0,5.37v5.16A.48.48,0,0,0,.48,11H1V13.4a.45.45,0,0,0,.48.48h2a.45.45,0,0,0,.48-.48V11h.48a.48.48,0,0,0,.48-.48V5.37A.48.48,0,0,0,4.36,4.89ZM2.92,13h-1V11h1Z"></path><path d="M12.92,2.46a2,2,0,0,1-2,1.91A1.92,1.92,0,0,1,9,2.46,1.92,1.92,0,0,1,10.1.69a.48.48,0,0,1,.62.23.43.43,0,0,1-.19.62,1,1,0,0,0-.53.92,1,1,0,0,0,1.91,0,1,1,0,0,0-.52-.92A.41.41,0,0,1,11.2.92a.49.49,0,0,1,.62-.23A2,2,0,0,1,12.92,2.46Z"></path><path d="M14.21,9.91a.45.45,0,0,0-.58-.33.4.4,0,0,0-.33.48H8.66L9.71,5.85h2.54l.67,2.87a.49.49,0,0,0,.62.33.45.45,0,0,0,.33-.57l-.81-3.25a.48.48,0,0,0-.48-.34H9.33a.48.48,0,0,0-.48.34L7.56,10.44a.48.48,0,0,0,.1.43A.51.51,0,0,0,8,11H9.48V13.4a.47.47,0,0,0,.47.48h2a.48.48,0,0,0,.48-.48V11h1.43a.54.54,0,0,0,.39-.14.5.5,0,0,0,.09-.43ZM11.48,13H10.43V11h1.05Z"></path><path d="M7,12.59v.81a.45.45,0,0,1-.48.48A.48.48,0,0,1,6,13.4v-.81a.52.52,0,0,1,.48-.48A.48.48,0,0,1,7,12.59Z"></path><path d="M7,1V11a.45.45,0,0,1-.48.47A.48.48,0,0,1,6,11V1A.49.49,0,0,1,6.51.49.46.46,0,0,1,7,1Z"></path></g></g></svg>