<svg xmlns="http://www.w3.org/2000/svg" viewBox="0 0 14.38 14.38"><defs><style>.cls-1{fill:none;}</style></defs><g id="Camada_2" data-name="Camada 2"></g><g id="Camada_2-2" data-name="Camada 2"><rect class="cls-1" width="14.38" height="14.38"></rect><path d="M12.28,2.1a7.21,7.21,0,0,0-10.17,0,.52.52,0,0,0,.73.73,6.14,6.14,0,1,1-1.34,2c.07-.16.15-.32.23-.48a.51.51,0,0,0-.22-.69.52.52,0,0,0-.7.22,5.45,5.45,0,0,0-.25.55A7.19,7.19,0,1,0,12.28,2.1Z"></path><path d="M7.19,10.27a.51.51,0,0,1-.51-.51V7.19a.52.52,0,0,1,1,0V9.76A.51.51,0,0,1,7.19,10.27Z"></path><path d="M7.19,2.56a.51.51,0,0,1-.51-.51V1a.52.52,0,0,1,1,0v1A.51.51,0,0,1,7.19,2.56Z"></path><path d="M7.19,13.86a.51.51,0,0,1-.51-.51v-1a.52.52,0,0,1,1,0v1A.51.51,0,0,1,7.19,13.86Z"></path><path d="M2.06,7.7H1a.51.51,0,0,1-.52-.51A.51.51,0,0,1,1,6.68h1a.51.51,0,0,1,.51.51A.51.51,0,0,1,2.06,7.7Z"></path><path d="M13.35,7.7h-1a.52.52,0,0,1-.52-.51.51.51,0,0,1,.52-.51h1a.51.51,0,0,1,.52.51A.51.51,0,0,1,13.35,7.7Z"></path><path d="M9.76,5.13A.54.54,0,0,1,9.4,5a.52.52,0,0,1,0-.73l.7-.7a.51.51,0,1,1,.72.72l-.7.7A.51.51,0,0,1,9.76,5.13Z"></path><path d="M7.19,7.7a.51.51,0,0,1-.36-.87L8.37,5.29a.52.52,0,0,1,.73,0A.51.51,0,0,1,9.1,6L7.56,7.55A.53.53,0,0,1,7.19,7.7Z"></path></g></svg>