<svg xmlns="http://www.w3.org/2000/svg" viewBox="0 0 14.38 14.38"><defs><style>.cls-1{fill:none;}</style></defs><g id="Camada_2" data-name="Camada 2"><g id="Camada_2-2" data-name="Camada 2"><rect class="cls-1" width="14.38" height="14.38"></rect><path d="M1.94,13.35A.91.91,0,0,1,1,12.44V10a.52.52,0,0,0-1,0v2.42a1.94,1.94,0,0,0,1.94,1.94h10.5a1.94,1.94,0,0,0,1.94-1.94V1.94A1.94,1.94,0,0,0,12.44,0H1.94A1.94,1.94,0,0,0,0,1.94v5.8a.52.52,0,0,0,1,0V1.94A.91.91,0,0,1,1.94,1h10.5a.91.91,0,0,1,.91.91v10.5a.91.91,0,0,1-.91.91"></path><path d="M7.19,4.65A1.47,1.47,0,1,1,8.66,3.18a.51.51,0,0,1-1,0,.45.45,0,1,0-.9,0,.45.45,0,0,0,.45.45A.54.54,0,0,1,7.87,4a.48.48,0,0,1-.31.62A1.55,1.55,0,0,1,7.19,4.65Z"></path><path d="M9.48,12.9H5.24a.51.51,0,0,1-.51-.51V11a.51.51,0,0,1,.51-.51H6.33v-3H5.55A.51.51,0,0,1,5,7V5.51A.51.51,0,0,1,5.55,5H8.26a.51.51,0,0,1,.51.51v5h.71A.51.51,0,0,1,10,11v1.42A.51.51,0,0,1,9.48,12.9Zm-3.72-1H9v-.39h-.7A.51.51,0,0,1,7.75,11V6H6.06v.45h.79A.51.51,0,0,1,7.36,7v4a.51.51,0,0,1-.51.52H5.76Z"></path></g></g></svg>