<svg xmlns="http://www.w3.org/2000/svg" viewBox="0 0 14.38 14.38"><defs><style>.cls-1{fill:none;}</style></defs><g id="Camada_2" data-name="Camada 2"><g id="Camada_2-2" data-name="Camada 2"><rect class="cls-1" width="14.38" height="14.38"></rect><path d="M6.67,1.78.27,5.23s-.05,0-.08.06l0,0a.56.56,0,0,0-.1.15v0a.83.83,0,0,0,0,.15v6.69a.51.51,0,0,0,.51.52H2.05a.52.52,0,1,0,0-1H1V6.19H3.59v6.16a.52.52,0,0,0,.52.52h9.75a.52.52,0,0,0,.52-.52V5.66a.45.45,0,0,0,0-.16v0a.4.4,0,0,0-.1-.15.1.1,0,0,0-.05,0s0,0-.07-.06L7.7,1.78l-.51-.27Zm.52.89,4.64,2.5H2.55Zm1,9.17H4.62V6.19H9.75V10.3a.52.52,0,0,0,1,0V6.19h2.57v5.65H8.21Z"></path><circle cx="7.19" cy="4.09" r="0.5"></circle></g></g></svg>