<svg xmlns="http://www.w3.org/2000/svg" viewBox="0 0 14.38 14.38"><defs><style>.cls-1{fill:none;}</style></defs><g id="Camada_2" data-name="Camada 2"><g id="Camada_2-2" data-name="Camada 2"><rect class="cls-1" width="14.38" height="14.38"></rect><path d="M4.42,8A.48.48,0,0,1,4,7.64L2.93,4c-.34.82-.61,1.5-.64,1.62s-.26.44-.5.39c-.46,0-.5-.11-1.78-5.46A.51.51,0,0,1,.1.18.49.49,0,0,1,.48,0H13.9a.49.49,0,0,1,.37.18.47.47,0,0,1,.09.41,21.24,21.24,0,0,0-.53,3.24c0,.51-.29.64-.42.66-.29.08-.51,0-1-1a23.92,23.92,0,0,0-.54,2.39c-.07.49-.27.71-.62.72s-.71-.12-1.38-3.85l-.92.44a.49.49,0,0,1-.47,0l-.76-.5a.46.46,0,0,1-.61.13.47.47,0,0,1-.2-.64l.22-.4a.48.48,0,0,1,.68-.18l1,.64L10,1.66a.48.48,0,0,1,.42,0A.45.45,0,0,1,10.7,2c.14.81.32,1.71.48,2.44.29-1.25.65-2.38.67-2.45a.6.6,0,0,1,.46-.33.46.46,0,0,1,.44.3c.08.18.16.38.25.56.09-.56.21-1.16.3-1.58H1.09c.27,1.14.56,2.29.78,3.14.25-.62.53-1.29.7-1.7A.54.54,0,0,1,3,2.11a.47.47,0,0,1,.43.35l.86,3,.54-2.75a.47.47,0,0,1,.29-.35.48.48,0,0,1,.46.05l.94.68a.47.47,0,0,1,.58.67L7,4a.47.47,0,0,1-.31.24.45.45,0,0,1-.39-.08l-.68-.49-.77,4A.48.48,0,0,1,4.44,8Z"></path><path d="M13.17,14.37a5.25,5.25,0,0,1-.71-.09,12.85,12.85,0,0,0-1.89-.23A2.6,2.6,0,0,1,9,13.48a1.77,1.77,0,0,0-.23-.14s-.18.14-.3.23a3.56,3.56,0,0,1-.91.49,3.2,3.2,0,0,1-1.29,0l-.33,0a1.6,1.6,0,0,1-.78-.24L5,13.76a.45.45,0,0,1-.45-.47.5.5,0,0,1,.5-.47,1.11,1.11,0,0,1,.54.17,1.87,1.87,0,0,0,.76.17,2.06,2.06,0,0,0,.89,0,2.69,2.69,0,0,0,.65-.37,1.74,1.74,0,0,1,.89-.38,1.25,1.25,0,0,1,.72.3,1.72,1.72,0,0,0,1,.4,13.37,13.37,0,0,1,2,.24l.55.09s.05-.11.11-.17a.89.89,0,0,1,.61-.35h0a.48.48,0,0,1,.14.94l-.08.08A1.19,1.19,0,0,1,13.17,14.37Z"></path><path d="M.48,14.37a.48.48,0,0,1-.3-.85,3.24,3.24,0,0,1,1.67-.7A3.58,3.58,0,0,1,3,13.09c.22.08.59.16.69.19a.46.46,0,0,1,.56.38.47.47,0,0,1-.37.56A2.37,2.37,0,0,1,2.66,14a3,3,0,0,0-.81-.22,2.31,2.31,0,0,0-1.07.5A.49.49,0,0,1,.48,14.37Z"></path><path d="M3.27,13.87a.49.49,0,0,1-.38-.18A2.54,2.54,0,0,1,2.5,12.6c-.17.38-.31.67-.33.7a.48.48,0,0,1-.85-.43A13.12,13.12,0,0,0,2.08,11c.1-.45.4-.5.53-.5h0c.47,0,.54.4.71,1.34a7.52,7.52,0,0,0,.3,1.24.48.48,0,0,1-.36.78Z"></path><path d="M9.76,13.86a.51.51,0,0,1-.43-.26L8.4,11.8,7.75,12a.48.48,0,0,1-.58-.2l-.24,1.62a.5.5,0,0,1-.54.4A.47.47,0,0,1,6,13.31l.47-3.12a.48.48,0,0,1,.4-.4.48.48,0,0,1,.5.26l.47.94.65-.23a.47.47,0,0,1,.59.23l1.12,2.17a.48.48,0,0,1-.2.65A.59.59,0,0,1,9.76,13.86Z"></path><path d="M13.29,14.21a.47.47,0,0,1-.48-.43l-.18-1.66a.4.4,0,0,1-.32,0,.38.38,0,0,1-.15-.13l-.43,1.64a.48.48,0,0,1-.93-.25l.94-3.62a.48.48,0,0,1,.46-.36.5.5,0,0,1,.48.39L12.9,11a.43.43,0,0,1,.38,0,.52.52,0,0,1,.24.37l.24,2.3a.48.48,0,0,1-.42.53Z"></path></g></g></svg>