<svg xmlns="http://www.w3.org/2000/svg" viewBox="0 0 14.38 14.38"><defs><style>.cls-1{fill:none;}</style></defs><g id="Camada_2" data-name="Camada 2"><g id="Camada_2-2" data-name="Camada 2"><rect class="cls-1" width="14.38" height="14.38"></rect><path d="M12.54,12.23a.51.51,0,0,0-1,.18l.17.94H10.27v-1a.52.52,0,0,0-1,0v1H5.13v-1a.51.51,0,0,0-.51-.51.51.51,0,0,0-.51.51v1H2.67l.4-2.2A2.91,2.91,0,0,1,4.38,9.21l.9.9a1,1,0,0,0,.74.31l.16,0A1,1,0,0,0,7,9.84l.24-.48.24.48a1,1,0,0,0,.76.56l.17,0a1.05,1.05,0,0,0,.74-.31L10,9.2a3,3,0,0,1,1.09,1.28.51.51,0,1,0,.94-.42,4,4,0,0,0-2.52-2.2,3.58,3.58,0,0,0,1.26-2.73V4.62h1a.51.51,0,0,0,.42-.8,3.91,3.91,0,0,0-1.46-1.31A2.56,2.56,0,0,0,8.21,0H7.7a.52.52,0,0,0,0,1h.51a1.53,1.53,0,0,1,1.47,1.1,4.54,4.54,0,0,0-.75-.07H5.45a3.84,3.84,0,0,0-.76.08A1.52,1.52,0,0,1,5.78,1.08.52.52,0,0,0,6.15.45.53.53,0,0,0,5.52.08,2.57,2.57,0,0,0,3.6,2.51,4.07,4.07,0,0,0,2.14,3.82a.53.53,0,0,0,0,.53.5.5,0,0,0,.45.27h1v.51A3.58,3.58,0,0,0,4.86,7.86,4,4,0,0,0,2.06,11l-.51,2.8a.5.5,0,0,0,.11.42.5.5,0,0,0,.4.18H12.32a.48.48,0,0,0,.39-.18.5.5,0,0,0,.11-.42ZM6,9.38l-.59-.59A2.6,2.6,0,0,1,6,8.73h.37Zm2.34,0L8,8.73H8.4A2.67,2.67,0,0,1,9,8.79Zm.59-6.3a2.94,2.94,0,0,1,1.66.52H3.78a3,3,0,0,1,1.67-.52ZM4.62,5.13V4.62H9.75v.51a2.57,2.57,0,1,1-5.13,0Z"></path><path d="M7.2,10.27h0a.51.51,0,1,0,.52.51A.51.51,0,0,0,7.19,10.27Z"></path><path d="M7.2,11.81h0a.51.51,0,1,0,.52.51A.51.51,0,0,0,7.19,11.81Z"></path><path d="M6.17,6.16a.52.52,0,0,0,0-1h0a.52.52,0,0,0,0,1Z"></path><path d="M8.22,6.16a.52.52,0,1,0,0-1h0a.52.52,0,0,0,0,1Z"></path></g></g></svg>