<svg xmlns="http://www.w3.org/2000/svg" viewBox="0 0 14.38 14.38"><defs><style>.cls-1{fill:none;}</style></defs><g id="Camada_2" data-name="Camada 2"><g id="Camada_2-2" data-name="Camada 2"><rect class="cls-1" width="14.38" height="14.38"></rect><path d="M14.38,8.21a1.55,1.55,0,0,0-1.54-1.54H2.08a4.63,4.63,0,0,1,4.59-4.1h1a4.63,4.63,0,0,1,4.24,2.77.5.5,0,0,0,.67.26.51.51,0,0,0,.27-.67A5.65,5.65,0,0,0,7.7,1.54h-1A5.65,5.65,0,0,0,1.05,6.76a1.53,1.53,0,0,0,0,2.91,3.55,3.55,0,0,0,3.52,3.17H9.81a3.55,3.55,0,0,0,3.52-3.17A1.54,1.54,0,0,0,14.38,8.21Zm-1.54.52H5.13a.51.51,0,0,0-.51.51.51.51,0,0,0,.51.51h7.15a2.52,2.52,0,0,1-2.47,2.06H4.57A2.51,2.51,0,0,1,2.1,9.75h1a.51.51,0,0,0,.51-.51.51.51,0,0,0-.51-.51H1.54a.52.52,0,0,1,0-1h11.3a.52.52,0,0,1,0,1Z"></path><path d="M8.74,3.59h0a.52.52,0,1,0,.52.52A.51.51,0,0,0,8.73,3.59Z"></path><path d="M9.76,5.65a.52.52,0,1,0,0-1h0a.52.52,0,0,0,0,1Z"></path></g></g></svg>