<svg xmlns="http://www.w3.org/2000/svg" viewBox="0 0 14.38 14.38"><defs><style>.cls-1{fill:none;}</style></defs><g id="Camada_2" data-name="Camada 2"><g id="Camada_2-2" data-name="Camada 2"><rect class="cls-1" width="14.38" height="14.38"></rect><path d="M13.84,13.61a.47.47,0,0,1-.35-.16,4.7,4.7,0,0,0-.56-.5,2.39,2.39,0,0,0-1.09-.4,1.64,1.64,0,0,0-.88.36l-.13.09a2.83,2.83,0,0,1-1.33.5A2,2,0,0,1,8,13.14,2.47,2.47,0,0,0,7,12.76a2.31,2.31,0,0,0-1.19.14L5.45,13a4.93,4.93,0,0,1-.64.24,2.44,2.44,0,0,1-1.29.05,4.29,4.29,0,0,1-1.24-.47c-.46-.23-.69-.33-1-.24a1.37,1.37,0,0,0-.44.21.47.47,0,0,1-.67-.11A.48.48,0,0,1,.25,12,2.16,2.16,0,0,1,1,11.68,2.26,2.26,0,0,1,2.72,12a3.45,3.45,0,0,0,1,.38,1.58,1.58,0,0,0,.84,0,4.5,4.5,0,0,0,.51-.2L5.4,12a3.27,3.27,0,0,1,1.67-.21,3.4,3.4,0,0,1,1.45.5,1.25,1.25,0,0,0,.88.24,1.76,1.76,0,0,0,.9-.35l.13-.08a2.52,2.52,0,0,1,1.39-.52,3.14,3.14,0,0,1,1.69.59,5.22,5.22,0,0,1,.69.62.49.49,0,0,1,0,.68A.49.49,0,0,1,13.84,13.61Z"></path><path d="M3.45,13.08A.48.48,0,0,1,3,12.6s0-2.95,0-5.86A2.64,2.64,0,0,0,.49,4.05a.49.49,0,0,1-.44-.53.46.46,0,0,1,.52-.44A3.55,3.55,0,0,1,3.93,6.75c0,2.9,0,5.81,0,5.83a.48.48,0,0,1-.48.5Z"></path><path d="M5.44,10.08H5.31A.5.5,0,0,1,5,9.46H5a19.26,19.26,0,0,0-.12-3.22A3.85,3.85,0,0,0,1.13,2.68a.49.49,0,0,1-.47-.5.49.49,0,0,1,.49-.47h0s4.31.23,4.65,4.45a15.17,15.17,0,0,1,.09,3.57A.49.49,0,0,1,5.44,10.08Z"></path><path d="M8.82,13.28h0a.48.48,0,0,1-.47-.5s.12-5.2-.1-8.07A5,5,0,0,0,6.85,1.63.49.49,0,0,1,6.79.94a.48.48,0,0,1,.69,0A5.84,5.84,0,0,1,9.2,4.63c.24,2.92.12,8,.11,8.18A.49.49,0,0,1,8.82,13.28Z"></path><path d="M7.26,11.55a.48.48,0,0,1-.48-.48s0-1.93-.09-4.76l0-.43a.48.48,0,0,1,.48-.49h0a.48.48,0,0,1,.49.47v.42c.08,2.85.09,4.78.09,4.78a.48.48,0,0,1-.48.49Z"></path><path d="M6.86,4.63a.48.48,0,0,1-.46-.32,4,4,0,0,0-.59-1.12,4,4,0,0,0-1.21-1,.49.49,0,0,1,.48-.85A4.8,4.8,0,0,1,6.59,2.61,4.8,4.8,0,0,1,7.32,4a.48.48,0,0,1-.3.62A.44.44,0,0,1,6.86,4.63Z"></path><path d="M12.25,9.87l-.12,0a.49.49,0,0,1,.24-.95.47.47,0,0,1,.36.57v0A.49.49,0,0,1,12.25,9.87Z"></path><path d="M11.06,7.94l-.12,0a.48.48,0,0,1-.35-.59A.49.49,0,0,1,11.18,7a.47.47,0,0,1,.36.57v0A.49.49,0,0,1,11.06,7.94Z"></path><path d="M10.79,11.22h-.12a.48.48,0,0,1-.35-.59.5.5,0,0,1,.59-.37.47.47,0,0,1,.36.58v0A.48.48,0,0,1,10.79,11.22Z"></path></g></g></svg>