<svg xmlns="http://www.w3.org/2000/svg" viewBox="0 0 6.7 6.88"><g id="Camada_2" data-name="Camada 2"><g id="Camada_2-2" data-name="Camada 2"><path d="M3.35,1.47a1.94,1.94,0,0,0-1.12.36.24.24,0,1,0,.28.4A1.47,1.47,0,0,1,4.82,3.44a1.43,1.43,0,0,1-.28.86,1.4,1.4,0,0,1-.45.42v.93H2.61V4.72a1.54,1.54,0,0,1-.46-.42,1.5,1.5,0,0,1-.28-.86A1.36,1.36,0,0,1,2,2.81a.26.26,0,0,0-.12-.33.24.24,0,0,0-.33.12,2,2,0,0,0-.19.84A2,2,0,0,0,2.12,5V6.28a.6.6,0,0,0,.6.6H4a.61.61,0,0,0,.61-.6V5a2,2,0,0,0,.73-1.53A2,2,0,0,0,3.35,1.47Zm.74,4.81A.12.12,0,0,1,4,6.39H2.72a.11.11,0,0,1-.11-.11V6.14H4.09Z"></path><path d="M3.35,5.16a.25.25,0,0,0,.24-.25v-1h.25a.25.25,0,1,0,0-.49h-1a.25.25,0,1,0,0,.49H3.1v1A.25.25,0,0,0,3.35,5.16Z"></path><path d="M3.35,1.23A.25.25,0,0,0,3.59,1V.25a.25.25,0,1,0-.49,0V1A.25.25,0,0,0,3.35,1.23Z"></path><path d="M5.31.44A.24.24,0,0,0,5,.53l-.37.63a.25.25,0,0,0,.09.34.27.27,0,0,0,.12,0A.25.25,0,0,0,5,1.41L5.4.77A.23.23,0,0,0,5.31.44Z"></path><path d="M6.68,1.88a.23.23,0,0,0-.31-.15L5.68,2a.25.25,0,0,0-.15.32.24.24,0,0,0,.23.16l.08,0,.7-.25A.24.24,0,0,0,6.68,1.88Z"></path><path d="M1.87,1.53A.28.28,0,0,0,2,1.5a.25.25,0,0,0,.09-.34L1.72.53A.25.25,0,0,0,1.38.44a.25.25,0,0,0-.09.33l.37.64A.25.25,0,0,0,1.87,1.53Z"></path><path d="M1,2,.33,1.73A.25.25,0,0,0,0,1.88a.25.25,0,0,0,.15.31l.69.25.09,0A.25.25,0,0,0,1,2Z"></path></g></g></svg>