<svg xmlns="http://www.w3.org/2000/svg" viewBox="0 0 103 103"><defs><style>.cls-1{fill:#21a4cc;}</style></defs><g id="Camada_2" data-name="Camada 2"><g id="Camada_2-2" data-name="Camada 2"><path class="cls-1" d="M96.5,103H6.5A6.51,6.51,0,0,1,0,96.5V6.5A6.51,6.51,0,0,1,6.5,0h90A6.51,6.51,0,0,1,103,6.5v90A6.51,6.51,0,0,1,96.5,103ZM6.5,3A3.5,3.5,0,0,0,3,6.5v90A3.5,3.5,0,0,0,6.5,100h90a3.5,3.5,0,0,0,3.5-3.5V6.5A3.5,3.5,0,0,0,96.5,3Z"/><path class="cls-1" d="M67.34,35.63H35.66a1.72,1.72,0,0,1-1.73-1.72v-6.4a1.72,1.72,0,0,1,1.73-1.73H55.52a1.73,1.73,0,1,1,0,3.45H37.39v2.95H65.61V29.23H62.7a1.73,1.73,0,1,1,0-3.45h4.64a1.73,1.73,0,0,1,1.74,1.73v6.4A1.72,1.72,0,0,1,67.34,35.63Z"/><path class="cls-1" d="M57.94,44.19H45.07a1.7,1.7,0,0,1-1.48-.82L38.43,34.8a1.7,1.7,0,0,1,0-1.74,1.72,1.72,0,0,1,1.51-.88H63.1a1.72,1.72,0,0,1,1.47,2.62l-5.15,8.57A1.7,1.7,0,0,1,57.94,44.19ZM46.05,40.75H57L60,35.63H43Z"/><path class="cls-1" d="M63.07,77.22H40a1.74,1.74,0,0,1-1.35-.65c-.32-.4-7.79-9.86-6.91-18.54.17-1.62,1.28-3.77,3.5-6.81a1.73,1.73,0,0,1,2.79,2.06c-2.44,3.31-2.8,4.66-2.84,5.09-.63,6.13,4.11,13.24,5.67,15.4h21.3c1.55-2.18,6.18-9.29,5.6-15.4-.23-2.44-6.15-9.55-10.58-14.18H45.8c-.62.68-1.79,1.91-3.12,3.45a1.74,1.74,0,0,1-2.61-2.3c2.08-2.36,3.75-4.07,3.75-4.07a1.73,1.73,0,0,1,1.25-.52H57.94a1.73,1.73,0,0,1,1.25.52c1.93,2,11.61,12.13,12,16.76.81,8.68-6.5,18.14-6.81,18.53A1.72,1.72,0,0,1,63.07,77.22Z"/><path class="cls-1" d="M53.33,58.08a1.53,1.53,0,0,1-.78-.19,1.72,1.72,0,0,1-.77-2.31l2.8-5.52A1.71,1.71,0,0,1,55,49.5l5.23-4.34a1.69,1.69,0,0,1,2.44.23,1.73,1.73,0,0,1-.23,2.44l-4.94,4.1-2.64,5.2A1.71,1.71,0,0,1,53.33,58.08Z"/><path class="cls-1" d="M55.52,52.29a1.7,1.7,0,0,1-.79-.19L52.53,51a1.74,1.74,0,0,1-.74-2.33,1.72,1.72,0,0,1,2.33-.75L56.31,49a1.72,1.72,0,0,1-.79,3.26Z"/><path class="cls-1" d="M36.34,71.14a1.74,1.74,0,0,1-1.41-.73,1.72,1.72,0,0,1,.41-2.4l4.85-3.46a1.65,1.65,0,0,1,1.38-.29L49.47,66a1.72,1.72,0,0,1,1.31,2.06,1.68,1.68,0,0,1-2.06,1.32l-7.14-1.57-4.23,3A1.74,1.74,0,0,1,36.34,71.14Z"/><path class="cls-1" d="M41.49,67.1a1.59,1.59,0,0,1-.79-.19A1.73,1.73,0,0,1,40,64.58l1.22-2.36a1.73,1.73,0,1,1,3.07,1.59L43,66.17A1.73,1.73,0,0,1,41.49,67.1Z"/></g></g></svg>