<svg xmlns="http://www.w3.org/2000/svg" viewBox="0 0 103 103"><defs><style>.cls-1{fill:#21a4cc;}</style></defs><g id="Camada_2" data-name="Camada 2"><g id="Camada_2-2" data-name="Camada 2"><path class="cls-1" d="M96.5,103H6.5A6.51,6.51,0,0,1,0,96.5V6.5A6.51,6.51,0,0,1,6.5,0h90A6.51,6.51,0,0,1,103,6.5v90A6.51,6.51,0,0,1,96.5,103ZM6.5,3A3.5,3.5,0,0,0,3,6.5v90A3.5,3.5,0,0,0,6.5,100h90a3.5,3.5,0,0,0,3.5-3.5V6.5A3.5,3.5,0,0,0,96.5,3Z"/><path class="cls-1" d="M73.54,55.82V29.46a1.84,1.84,0,1,0-3.67,0v6.09A39.89,39.89,0,0,0,45.7,31.78a1.84,1.84,0,1,0,.58,3.63,36.26,36.26,0,0,1,23.59,4.32V55.17H62.39a8.61,8.61,0,0,0-8.5-7.34H49.11a8.61,8.61,0,0,0-8.5,7.34H33.13V39.84a51.77,51.77,0,0,1,6.06-2.35A1.84,1.84,0,0,0,38.09,34c-1.7.54-3.34,1.17-5,1.85V29.46a1.84,1.84,0,1,0-3.67,0V55.82a6.13,6.13,0,0,0-3.68,5.51v8.54a1.85,1.85,0,0,0,1.84,1.84h1.84v1.83a1.84,1.84,0,1,0,3.67,0V71.71H55.48a1.84,1.84,0,1,0,0-3.68h-26v-6.7a2.68,2.68,0,0,1,2.84-2.48H70.7a2.68,2.68,0,0,1,2.84,2.48V68h-11a1.84,1.84,0,0,0,0,3.68h7.35v1.83a1.84,1.84,0,1,0,3.67,0V71.71h1.84a1.85,1.85,0,0,0,1.84-1.84V61.33A6.13,6.13,0,0,0,73.54,55.82Zm-29.22-.65a5,5,0,0,1,4.79-3.67h4.78a5,5,0,0,1,4.79,3.67Z"/></g></g></svg>