<svg xmlns="http://www.w3.org/2000/svg" viewBox="0 0 103 103"><defs><style>.cls-1{fill:#21a4cc;}</style></defs><g id="Camada_2" data-name="Camada 2"><g id="Camada_2-2" data-name="Camada 2"><path class="cls-1" d="M96.5,103H6.5A6.51,6.51,0,0,1,0,96.5V6.5A6.51,6.51,0,0,1,6.5,0h90A6.51,6.51,0,0,1,103,6.5v90A6.51,6.51,0,0,1,96.5,103ZM6.5,3A3.5,3.5,0,0,0,3,6.5v90A3.5,3.5,0,0,0,6.5,100h90a3.5,3.5,0,0,0,3.5-3.5V6.5A3.5,3.5,0,0,0,96.5,3Z"/><path class="cls-1" d="M75.38,70.79H58.85V63.44a7.35,7.35,0,0,0-14.7,0v1.84a1.84,1.84,0,0,0,3.68,0V63.44a3.67,3.67,0,0,1,7.34,0v7.35H34.44L51.5,40.61,67,68a1.83,1.83,0,0,0,1.6.93,1.88,1.88,0,0,0,.91-.24,1.83,1.83,0,0,0,.69-2.5L53.61,36.88l3.16-5.6a1.84,1.84,0,0,0-3.2-1.81L51.5,33.14l-2.07-3.67a1.84,1.84,0,0,0-3.2,1.81l3.16,5.6L30.22,70.79h-2.6a1.84,1.84,0,1,0,0,3.67H75.38a1.84,1.84,0,1,0,0-3.67Z"/></g></g></svg>