<svg xmlns="http://www.w3.org/2000/svg" viewBox="0 0 103 103"><defs><style>.cls-1{fill:#21a4cc;}</style></defs><g id="Camada_2" data-name="Camada 2"><g id="Camada_2-2" data-name="Camada 2"><path class="cls-1" d="M96.5,103H6.5A6.51,6.51,0,0,1,0,96.5V6.5A6.51,6.51,0,0,1,6.5,0h90A6.51,6.51,0,0,1,103,6.5v90A6.51,6.51,0,0,1,96.5,103ZM6.5,3A3.5,3.5,0,0,0,3,6.5v90A3.5,3.5,0,0,0,6.5,100h90a3.5,3.5,0,0,0,3.5-3.5V6.5A3.5,3.5,0,0,0,96.5,3Z"/><path class="cls-1" d="M72.32,38.82A1.81,1.81,0,0,0,74.13,37V29.47a3.32,3.32,0,0,0-3.32-3.32H66.59a3.32,3.32,0,0,0-3.32,3.32v9.35H61l-.56-1.69a5.46,5.46,0,0,0-5.19-3.74H42.36a5.45,5.45,0,0,0-5.18,3.74l-.57,1.69h-.79a7,7,0,0,0-6.95,7v7.07a7.7,7.7,0,0,0,7.7,7.7H42a7.73,7.73,0,0,0,6.45-3.45l.35-.53.35.53a7.76,7.76,0,0,0,6.46,3.45h2.25a1.81,1.81,0,0,0,0-3.62H55.59a4.13,4.13,0,0,1-3.44-1.84l-1-1.45a3,3,0,0,0-4.79,0l-1,1.45A4.13,4.13,0,0,1,42,56.93H36.57a4.08,4.08,0,0,1-4.08-4.08V45.78a3.33,3.33,0,0,1,3.33-3.33H63.27V62.92A3.07,3.07,0,0,1,60.21,66H42.15a4.23,4.23,0,0,0-4.23,4.22v2.41a4.24,4.24,0,0,0,4.23,4.23H62A12.19,12.19,0,0,0,74.13,64.67V44.26a1.81,1.81,0,0,0-3.62,0V64.67A8.57,8.57,0,0,1,62,73.23H50.59V69.61h9.62a6.69,6.69,0,0,0,6.68-6.69V29.77h3.62V37A1.81,1.81,0,0,0,72.32,38.82Zm-31.89,0,.19-.55A1.84,1.84,0,0,1,42.36,37H55.2A1.84,1.84,0,0,1,57,38.27l.19.55ZM47,73.23H42.15a.61.61,0,0,1-.61-.61V70.21a.6.6,0,0,1,.61-.6H47Z"/></g></g></svg>