<svg xmlns="http://www.w3.org/2000/svg" viewBox="0 0 103 103"><defs><style>.cls-1{fill:#21a4cc;}</style></defs><g id="Camada_2" data-name="Camada 2"><g id="Camada_2-2" data-name="Camada 2"><path class="cls-1" d="M96.5,103H6.5A6.51,6.51,0,0,1,0,96.5V6.5A6.51,6.51,0,0,1,6.5,0h90A6.51,6.51,0,0,1,103,6.5v90A6.51,6.51,0,0,1,96.5,103ZM6.5,3A3.5,3.5,0,0,0,3,6.5v90A3.5,3.5,0,0,0,6.5,100h90a3.5,3.5,0,0,0,3.5-3.5V6.5A3.5,3.5,0,0,0,96.5,3Z"/><path class="cls-1" d="M73,44.69l-5-5V29.2a3.41,3.41,0,0,0-3.41-3.41h-4.2A3.41,3.41,0,0,0,57,29.2v6.47L51.5,38.43,46,35.67V29.2a3.41,3.41,0,0,0-3.41-3.41h-4.2A3.41,3.41,0,0,0,35,29.2V39.72l-5,5a1.87,1.87,0,0,0-.54,1.3v7.35a1.84,1.84,0,0,0,1.84,1.83H44.52A3.28,3.28,0,0,0,47.47,57h2.19v1.84H47.47a3.29,3.29,0,0,0-2.95,1.83H33.14a1.84,1.84,0,0,0-3.68,0V75.37a1.84,1.84,0,0,0,1.84,1.84H51.5a1.84,1.84,0,0,0,1.84-1.84V71.7h2.19a3.28,3.28,0,0,0,2.95-1.84H69.86v3.68H60.68a1.84,1.84,0,1,0,0,3.67h11a1.84,1.84,0,0,0,1.84-1.84V46A1.87,1.87,0,0,0,73,44.69Zm-14.16,5h11V51.5h-11Zm.83-11.21a1.83,1.83,0,0,0,1-1.64V29.46h3.67v11a1.85,1.85,0,0,0,.54,1.3L69.1,46H58.48a3.3,3.3,0,0,0-2.95-1.84H53.34V41.62ZM38.11,41.78a1.85,1.85,0,0,0,.54-1.3v-11h3.67v7.35a1.83,1.83,0,0,0,1,1.64l6.33,3.17v2.53H47.47A3.3,3.3,0,0,0,44.52,46H33.9Zm-5,7.88h11V51.5h-11Zm14.69-1.83h7.34v5.51H47.83ZM53.34,57h2.19a3.28,3.28,0,0,0,2.95-1.84H69.86v5.51H58.48a3.29,3.29,0,0,0-2.95-1.83H53.34Zm-9.19,7.34v1.84h-11V64.35Zm5.51,9.19H33.14V69.86H44.52a3.28,3.28,0,0,0,2.95,1.84h2.19ZM47.83,68V62.52h7.34V68Zm11-1.84V64.35h11v1.84Z"/></g></g></svg>