<svg xmlns="http://www.w3.org/2000/svg" viewBox="0 0 103 103"><defs><style>.cls-1{fill:#21a4cc;}</style></defs><g id="Camada_2" data-name="Camada 2"><g id="Camada_2-2" data-name="Camada 2"><path class="cls-1" d="M96.5,103H6.5A6.51,6.51,0,0,1,0,96.5V6.5A6.51,6.51,0,0,1,6.5,0h90A6.51,6.51,0,0,1,103,6.5v90A6.51,6.51,0,0,1,96.5,103ZM6.5,3A3.5,3.5,0,0,0,3,6.5v90A3.5,3.5,0,0,0,6.5,100h90a3.5,3.5,0,0,0,3.5-3.5V6.5A3.5,3.5,0,0,0,96.5,3Z"/><path class="cls-1" d="M67.31,55.51c-1-.07-1.91-.18-2.68-.29A27.53,27.53,0,0,1,57,53.3a1.81,1.81,0,0,0-.72-1.42,1.84,1.84,0,0,0-2-.11,10.77,10.77,0,0,1-1.79-1.57,1.83,1.83,0,0,0,.16-2.48,1.82,1.82,0,0,0-2.09-.52,11.21,11.21,0,0,1-.65-2.06l.41-.17a1.84,1.84,0,0,0,1-2.4,1.81,1.81,0,0,0-1.63-1.12V38.67a1.84,1.84,0,1,0,0-3.68V29.48a1.83,1.83,0,0,0-1.57-1.81A8.5,8.5,0,0,0,41,30a8.31,8.31,0,0,0-2.37,5H29.46V33.16a1.84,1.84,0,0,0-3.68,0V73.57a1.85,1.85,0,0,0,1.84,1.84H75.38a1.84,1.84,0,0,0,1.84-1.84V66.22A10.73,10.73,0,0,0,67.31,55.51Zm6,8.87H66.2V59.1l.86.07A7,7,0,0,1,73.27,64.38ZM47,54.7l2.62-2.14A14.48,14.48,0,0,0,52,54.63L50.32,56.9A17.33,17.33,0,0,1,47,54.7Zm.54-5.19-2.93,2.41A11.19,11.19,0,0,1,44,50.8,15.67,15.67,0,0,1,43.14,48l3.32-1.39A14.38,14.38,0,0,0,47.57,49.51Zm-5.26-9.08c0-.59,0-1.17,0-1.76H46v4.12l-3.42,1.43C42.41,42.6,42.34,41.19,42.31,40.43Zm1.3-7.81A4.61,4.61,0,0,1,46,31.37V35H42.38A4.61,4.61,0,0,1,43.61,32.62ZM73.54,71.73H29.46V68.06h3.67a1.84,1.84,0,0,0,0-3.68H29.46V38.67h9.18c0,.64,0,1.27,0,1.92,0,1,.12,2.92.4,5.11h0a1.83,1.83,0,0,0,.67,3.53,18.09,18.09,0,0,0,1,3,13.85,13.85,0,0,0,1.13,2A1.83,1.83,0,0,0,43,57.51a1.77,1.77,0,0,0,1.16-.42l0,0a20.14,20.14,0,0,0,4.1,2.9A1.84,1.84,0,0,0,49,61.88a1.79,1.79,0,0,0,1.08.35,1.82,1.82,0,0,0,1.48-.75h0a31.62,31.62,0,0,0,3.18,1,1.89,1.89,0,0,0,.47.06,1.84,1.84,0,0,0,.46-3.62c-.5-.13-1.15-.32-1.85-.56l1.37-1.87a26.48,26.48,0,0,0,7.36,2.11v5.77h-22a1.84,1.84,0,1,0,0,3.68H73.54Z"/></g></g></svg>