<svg xmlns="http://www.w3.org/2000/svg" viewBox="0 0 103 103"><defs><style>.cls-1{fill:#21a4cc;}</style></defs><g id="Camada_2" data-name="Camada 2"><g id="Camada_2-2" data-name="Camada 2"><path class="cls-1" d="M96.5,103H6.5A6.51,6.51,0,0,1,0,96.5V6.5A6.51,6.51,0,0,1,6.5,0h90A6.51,6.51,0,0,1,103,6.5v90A6.51,6.51,0,0,1,96.5,103ZM6.5,3A3.5,3.5,0,0,0,3,6.5v90A3.5,3.5,0,0,0,6.5,100h90a3.5,3.5,0,0,0,3.5-3.5V6.5A3.5,3.5,0,0,0,96.5,3Z"/><path class="cls-1" d="M77.22,55.17a5.52,5.52,0,0,0-5.51-5.51H33.24A16.55,16.55,0,0,1,49.66,35h3.68A16.55,16.55,0,0,1,68.5,44.89a1.83,1.83,0,0,0,3.36-1.47A20.21,20.21,0,0,0,53.34,31.29H49.66A20.24,20.24,0,0,0,29.53,50a5.47,5.47,0,0,0,0,10.39A12.67,12.67,0,0,0,42.12,71.71H60.88A12.67,12.67,0,0,0,73.47,60.37,5.51,5.51,0,0,0,77.22,55.17ZM71.71,57H44.15a1.84,1.84,0,0,0,0,3.67H69.72A9,9,0,0,1,60.88,68H42.12a9,9,0,0,1-8.84-7.35H36.8a1.84,1.84,0,1,0,0-3.67H31.29a1.84,1.84,0,0,1,0-3.67H71.71a1.84,1.84,0,0,1,0,3.67Z"/><path class="cls-1" d="M57.05,38.64h0a1.84,1.84,0,1,0,1.85,1.84A1.83,1.83,0,0,0,57,38.64Z"/><path class="cls-1" d="M60.72,46a1.84,1.84,0,1,0,0-3.67h0a1.83,1.83,0,0,0-1.83,1.83A1.85,1.85,0,0,0,60.72,46Z"/></g></g></svg>