<svg xmlns="http://www.w3.org/2000/svg" viewBox="0 0 103 103"><defs><style>.cls-1{fill:#21a4cc;}</style></defs><g id="Camada_2" data-name="Camada 2"><g id="Camada_2-2" data-name="Camada 2"><path class="cls-1" d="M96.5,103H6.5A6.51,6.51,0,0,1,0,96.5V6.5A6.51,6.51,0,0,1,6.5,0h90A6.51,6.51,0,0,1,103,6.5v90A6.51,6.51,0,0,1,96.5,103ZM6.5,3A3.5,3.5,0,0,0,3,6.5v90A3.5,3.5,0,0,0,6.5,100h90a3.5,3.5,0,0,0,3.5-3.5V6.5A3.5,3.5,0,0,0,96.5,3Z"/><path class="cls-1" d="M71.71,36.8H62.52a11,11,0,0,0-22,0H31.29a1.84,1.84,0,0,0-1.83,1.84V71a6.24,6.24,0,0,0,6.23,6.24,1.84,1.84,0,0,0,0-3.68A2.56,2.56,0,0,1,33.13,71V40.48H53.34a1.84,1.84,0,0,0,0-3.68H44.15a7.35,7.35,0,0,1,14.7,0v1.84a1.83,1.83,0,0,0,1.83,1.84h9.19V71a2.56,2.56,0,0,1-2.56,2.56H58.85V69.87h5.51a1.84,1.84,0,0,0,1.83-1.75,21.89,21.89,0,0,0-4-14,19.93,19.93,0,0,0-4-4,1.81,1.81,0,0,0-1.92-.17,1.83,1.83,0,0,0-1,1.64v22H46v-10l2.84-1.89a6,6,0,0,0,2.67-5V51.5a1.84,1.84,0,1,0-3.67,0v5.12a2.34,2.34,0,0,1-1,1.94l-.8.53V51.5a1.84,1.84,0,1,0-3.67,0v7.59l-.8-.53a2.34,2.34,0,0,1-1-1.94V51.5a1.84,1.84,0,1,0-3.68,0v5.12a6,6,0,0,0,2.68,5l2.84,1.89V75.38a1.84,1.84,0,0,0,1.83,1.84H67.31A6.24,6.24,0,0,0,73.54,71V38.64A1.84,1.84,0,0,0,71.71,36.8Zm-12.86,19,.36.47a17.64,17.64,0,0,1,3.32,9.93H58.85Z"/></g></g></svg>