<svg xmlns="http://www.w3.org/2000/svg" viewBox="0 0 103 103"><defs><style>.cls-1{fill:#21a4cc;}</style></defs><g id="Camada_2" data-name="Camada 2"><g id="Camada_2-2" data-name="Camada 2"><path class="cls-1" d="M96.5,103H6.5A6.51,6.51,0,0,1,0,96.5V6.5A6.51,6.51,0,0,1,6.5,0h90A6.51,6.51,0,0,1,103,6.5v90A6.51,6.51,0,0,1,96.5,103ZM6.5,3A3.5,3.5,0,0,0,3,6.5v90A3.5,3.5,0,0,0,6.5,100h90a3.5,3.5,0,0,0,3.5-3.5V6.5A3.5,3.5,0,0,0,96.5,3Z"/><path class="cls-1" d="M62.52,35H60.68V29.51A3.74,3.74,0,0,0,57,25.78H46.05a3.74,3.74,0,0,0-3.73,3.73V35H40.48a1.83,1.83,0,0,0-1.84,1.83v7.35a1.84,1.84,0,0,0,3.68,0V38.64H60.68v34.9H42.32V53.34a1.84,1.84,0,0,0-3.68,0v22a1.84,1.84,0,0,0,1.84,1.84h22a1.84,1.84,0,0,0,1.84-1.84V36.8A1.83,1.83,0,0,0,62.52,35ZM46,35l0-5.51,11,.05V35Z"/><path class="cls-1" d="M51.5,42.31a1.85,1.85,0,0,0-1.84,1.84V46H47.83a1.84,1.84,0,1,0,0,3.67h1.83V51.5a1.84,1.84,0,0,0,3.68,0V49.66h1.83a1.84,1.84,0,1,0,0-3.67H53.34V44.15A1.85,1.85,0,0,0,51.5,42.31Z"/><path class="cls-1" d="M47.83,69.87h7.34a1.84,1.84,0,0,0,0-3.68H47.83a1.84,1.84,0,1,0,0,3.68Z"/></g></g></svg>