<svg xmlns="http://www.w3.org/2000/svg" viewBox="0 0 103 103"><defs><style>.cls-1{fill:#21a4cc;}</style></defs><g id="Camada_2" data-name="Camada 2"><g id="Camada_2-2" data-name="Camada 2"><path class="cls-1" d="M96.5,103H6.5A6.51,6.51,0,0,1,0,96.5V6.5A6.51,6.51,0,0,1,6.5,0h90A6.51,6.51,0,0,1,103,6.5v90A6.51,6.51,0,0,1,96.5,103ZM6.5,3A3.5,3.5,0,0,0,3,6.5v90A3.5,3.5,0,0,0,6.5,100h90a3.5,3.5,0,0,0,3.5-3.5V6.5A3.5,3.5,0,0,0,96.5,3Z"/><path class="cls-1" d="M32.72,73.54a3.26,3.26,0,0,1-3.26-3.26V61.64a1.84,1.84,0,0,0-3.68,0v8.64a7,7,0,0,0,6.94,6.94H70.28a7,7,0,0,0,6.94-6.94V32.72a7,7,0,0,0-6.94-6.94H32.72a7,7,0,0,0-6.94,6.94V53.47a1.84,1.84,0,0,0,3.68,0V32.72a3.26,3.26,0,0,1,3.26-3.26H70.28a3.26,3.26,0,0,1,3.26,3.26V70.28a3.26,3.26,0,0,1-3.26,3.26"/><path class="cls-1" d="M51.5,42.43a5.27,5.27,0,1,1,5.28-5.28,1.84,1.84,0,0,1-3.68,0,1.6,1.6,0,0,0-3.2,0,1.62,1.62,0,0,0,1.6,1.62,2,2,0,0,1,2.44,1.29,1.68,1.68,0,0,1-1.12,2.21A5.75,5.75,0,0,1,51.5,42.43Z"/><path class="cls-1" d="M59.7,71.94H44.54a1.83,1.83,0,0,1-1.84-1.83V65.05a1.83,1.83,0,0,1,1.84-1.83h3.91V52.63H45.64a1.82,1.82,0,0,1-1.84-1.82v-5.3a1.83,1.83,0,0,1,1.84-1.83h9.7a1.82,1.82,0,0,1,1.83,1.83V63.22H59.7a1.82,1.82,0,0,1,1.83,1.83v5.06A1.82,1.82,0,0,1,59.7,71.94ZM46.38,68.28H57.86v-1.4H55.34a1.83,1.83,0,0,1-1.84-1.83V47.34h-6V49h2.81a1.83,1.83,0,0,1,1.84,1.83V65.05a1.83,1.83,0,0,1-1.84,1.83H46.38Z"/></g></g></svg>