<svg xmlns="http://www.w3.org/2000/svg" viewBox="0 0 103 103"><defs><style>.cls-1{fill:#21a4cc;}</style></defs><g id="Camada_2" data-name="Camada 2"><g id="Camada_2-2" data-name="Camada 2"><path class="cls-1" d="M96.5,103H6.5A6.51,6.51,0,0,1,0,96.5V6.5A6.51,6.51,0,0,1,6.5,0h90A6.51,6.51,0,0,1,103,6.5v90A6.51,6.51,0,0,1,96.5,103ZM6.5,3A3.5,3.5,0,0,0,3,6.5v90A3.5,3.5,0,0,0,6.5,100h90a3.5,3.5,0,0,0,3.5-3.5V6.5A3.5,3.5,0,0,0,96.5,3Z"/><path class="cls-1" d="M67.76,60.31c-4.24,0-10.53-1.78-11.71-3-.76-.74-6.21-3.87-8.06-4-5.49-.54-18.6-2.09-21.68-5.06a1.81,1.81,0,0,1-.52-1.41,13.25,13.25,0,0,1,9.28-11c5-1.76,10-1.55,14.14-1.31a24.07,24.07,0,0,0,5.53-.1c3.77-.81,5,1.16,5.43,2.35,2.15-.5,6.51-1.46,9.79,2.36,3.82,4.47,5,15.56,2.78,19.14a4.53,4.53,0,0,1-3.6,1.93A11.89,11.89,0,0,1,67.76,60.31ZM29.48,46.19c2.55,1.3,10,2.76,18.85,3.61,2.84.27,9,3.87,10.21,5.05,1.45.93,10,2.72,11.22,1.6,1.19-2,.59-11.4-2.49-15-1.75-2-4-1.77-6.37-1.17a4.12,4.12,0,0,1-2.27.14,2.72,2.72,0,0,1-1.64-2,3.24,3.24,0,0,0-.22-.58h0a4.16,4.16,0,0,0-1.27.08,25.57,25.57,0,0,1-6.46.18c-3.75-.16-8.44-.4-12.82,1.13A10,10,0,0,0,29.48,46.19Z"/><path class="cls-1" d="M33,46.48a2.72,2.72,0,0,1-.49,0,2.14,2.14,0,0,1-1.32-1.12,2.27,2.27,0,0,1,.39-2.38c.58-.72,2.2-2,3.5-1.73h0a2.43,2.43,0,0,1,1.7,1.49,2.24,2.24,0,0,1-1,2.36A5.13,5.13,0,0,1,33,46.48ZM33.33,43a1.28,1.28,0,0,0,0,.47l.19-.4Z"/><path class="cls-1" d="M47.24,46.86a8.59,8.59,0,0,1-2.51-.37c-1.87-.53-4.54-2.15-4.25-4.33.2-1.53,1.63-2.17,2.78-2.68,1.69-.76,5.17-2.27,7.6-.14a4.57,4.57,0,0,1,1.35,4.88C51.44,46.15,49.3,46.86,47.24,46.86ZM44,42.64a5.49,5.49,0,0,0,1.65.83c1.57.46,3.42.12,3.65-.42a1.52,1.52,0,0,0-.51-1.34c-.9-.79-3.22.19-4.19.66Zm-1.92-.27h0Z"/><path class="cls-1" d="M56.28,51.64a6.31,6.31,0,0,1-2.55-.55,1.75,1.75,0,0,1-1-1.93,22.23,22.23,0,0,0,.35-4.78,3.9,3.9,0,0,1,.66-2.92,4.36,4.36,0,0,1,3.9-1.16,5.06,5.06,0,0,1,4.06,2.62c.78,1.67.13,3.27-.44,4.68a6.08,6.08,0,0,1-2.6,3.47A4.93,4.93,0,0,1,56.28,51.64Zm.28-7.86a1.09,1.09,0,0,1,0,.19,25.62,25.62,0,0,1-.15,4.16A1.42,1.42,0,0,0,57,48c.38-.2.58-.62,1-1.65a4.73,4.73,0,0,0,.53-1.89,1.44,1.44,0,0,0-.79-.52A1.87,1.87,0,0,0,56.56,43.78Z"/><path class="cls-1" d="M64.67,54.58A3.91,3.91,0,0,1,61.89,53c-.79-1.08-.3-2.35.16-3.59a5.31,5.31,0,0,0,.32-.91c-.2-.64.08-1.84,3.61-3.81a2,2,0,0,1,1.45-.13,1.83,1.83,0,0,1,1,1c.84,2.09.82,3.43-.1,4.24l-.86.87-.65.67v.16a11.87,11.87,0,0,1-.09,1.32,2.62,2.62,0,0,1-1.61,1.76A2.92,2.92,0,0,1,64.67,54.58Z"/><path class="cls-1" d="M30.22,48.23a29,29,0,0,1-3.37,3.68l-.16-3.68Z"/><path class="cls-1" d="M33.51,49.76a28.52,28.52,0,0,1-3,3.43A33.69,33.69,0,0,0,30,49.76Z"/><path class="cls-1" d="M37.34,50.86a41.66,41.66,0,0,1-2.66,3.6l-.87-3.6Z"/><path class="cls-1" d="M41.37,51.91a39.75,39.75,0,0,1-2.46,3.2l-1.06-3.2Z"/><path class="cls-1" d="M45.54,52.34a40,40,0,0,1-2.66,3.1L42,52.05Z"/><path class="cls-1" d="M49.55,52.7A29.67,29.67,0,0,1,46.82,56,31.59,31.59,0,0,0,46,52.7Z"/><path class="cls-1" d="M53.24,53.82A32.16,32.16,0,0,1,50.68,57a32.82,32.82,0,0,0-1-3.18Z"/><path class="cls-1" d="M57.2,55.11a12.26,12.26,0,0,1-2.08,1.69,9.62,9.62,0,0,0-1.44-1.69Z"/><path class="cls-1" d="M36,68.73c-3.19,0-5-.5-5.63-2.39a2.62,2.62,0,0,1,.33-2.2c1.93-3.06,11.69-4.57,13.62-4.85s3.65-.39,5.25-.48c2.27-.14,4.42-.26,5.15-.91,1.69-1.46,2.41-2.24,2.46-2.29A1.64,1.64,0,0,1,59,55.13c1.65.55,6.39,1.87,9.05,1.67,2.84-.26,7.51.6,8.82,2.94a2.82,2.82,0,0,1-.28,3.18C74,66.24,53.69,68,48.73,68.1c-2.59.08-5,.24-7.13.38S37.52,68.73,36,68.73Zm23-9.94c-.44.43-1.07,1-1.93,1.76-1.63,1.44-4.12,1.6-7.27,1.77-1.49.1-3.16.19-4.95.45a41.41,41.41,0,0,0-10.05,2.56c1.51,0,4.3-.23,6.66-.38,2.17-.14,4.62-.29,7.25-.36,9.13-.26,21.21-2.19,24.53-3.53a9.6,9.6,0,0,0-4.78-.75C65.37,60.6,61,59.41,58.92,58.79Z"/><polygon class="cls-1" points="31.72 64.3 31.76 60.22 34.91 62.78 31.72 64.3"/><polygon class="cls-1" points="34.46 62.9 34.8 58.76 37.76 61.68 34.46 62.9"/><polygon class="cls-1" points="37.59 62.16 37.94 57.97 40.9 60.96 37.59 62.16"/><polygon class="cls-1" points="41.22 61.58 41.58 57.3 44.54 60.39 41.22 61.58"/><polygon class="cls-1" points="44.3 60.82 44.65 56.54 47.62 59.63 44.3 60.82"/><polygon class="cls-1" points="48.16 60.58 48.52 56.3 51.48 59.39 48.16 60.58"/></g></g></svg>