<svg xmlns="http://www.w3.org/2000/svg" viewBox="0 0 103 103"><defs><style>.cls-1{fill:#21a4cc;}</style></defs><g id="Camada_2" data-name="Camada 2"><g id="Camada_2-2" data-name="Camada 2"><path class="cls-1" d="M96.5,103H6.5A6.51,6.51,0,0,1,0,96.5V6.5A6.51,6.51,0,0,1,6.5,0h90A6.51,6.51,0,0,1,103,6.5v90A6.51,6.51,0,0,1,96.5,103ZM6.5,3A3.5,3.5,0,0,0,3,6.5v90A3.5,3.5,0,0,0,6.5,100h90a3.5,3.5,0,0,0,3.5-3.5V6.5A3.5,3.5,0,0,0,96.5,3Z"/><path class="cls-1" d="M32.72,73.54a3.26,3.26,0,0,1-3.26-3.26V61.64a1.84,1.84,0,0,0-3.68,0v8.64a7,7,0,0,0,6.94,6.94H70.28a7,7,0,0,0,6.94-6.94V32.72a7,7,0,0,0-6.94-6.94H32.72a7,7,0,0,0-6.94,6.94V53.47a1.84,1.84,0,0,0,3.68,0V32.72a3.26,3.26,0,0,1,3.26-3.26H70.28a3.26,3.26,0,0,1,3.26,3.26V70.28a3.26,3.26,0,0,1-3.26,3.26"/><path class="cls-1" d="M48.89,71.86H42.73A1.82,1.82,0,0,1,40.89,70V67.25a1.84,1.84,0,0,1,3.68,0v1h2.48V56.6a1.84,1.84,0,0,1,1.78-1.83l3.53-.13a9.31,9.31,0,0,0,9.23-9.18,9.18,9.18,0,0,0-9.17-9.17H44.57v25a1.84,1.84,0,0,1-3.68,0V34.46a1.83,1.83,0,0,1,1.84-1.83h9.69A12.86,12.86,0,0,1,65.27,45.46,13,13,0,0,1,52.42,58.3l-1.69.08V70A1.82,1.82,0,0,1,48.89,71.86Z"/><path class="cls-1" d="M52.53,51.38l-3.65,0a1.83,1.83,0,0,1-1.83-1.83V40.87A1.83,1.83,0,0,1,48.89,39h3.64a1.83,1.83,0,1,1,0,3.66h-1.8v5l1.81,0A2.58,2.58,0,0,0,55,45.21a2.69,2.69,0,0,0-.18-1,1.83,1.83,0,1,1,3.39-1.4,6.15,6.15,0,0,1,.47,2.37A6.26,6.26,0,0,1,52.53,51.38Z"/></g></g></svg>