<svg xmlns="http://www.w3.org/2000/svg" viewBox="0 0 103 103"><defs><style>.cls-1{fill:#21a4cc;}</style></defs><g id="Camada_2" data-name="Camada 2"><g id="Camada_2-2" data-name="Camada 2"><path class="cls-1" d="M96.5,103H6.5A6.51,6.51,0,0,1,0,96.5V6.5A6.51,6.51,0,0,1,6.5,0h90A6.51,6.51,0,0,1,103,6.5v90A6.51,6.51,0,0,1,96.5,103ZM6.5,3A3.5,3.5,0,0,0,3,6.5v90A3.5,3.5,0,0,0,6.5,100h90a3.5,3.5,0,0,0,3.5-3.5V6.5A3.5,3.5,0,0,0,96.5,3Z"/><path class="cls-1" d="M56.9,48.88a3.65,3.65,0,0,0-6.74.61l-1,3.49-3.74-1.13a1.46,1.46,0,1,0-.84,2.8l5.14,1.55a1.46,1.46,0,0,0,1.81-1L53,50.33a.73.73,0,0,1,.91-.49.74.74,0,0,1,.49.91l-2,6.5a1.26,1.26,0,0,1-1.55.83l-1.61-.49a1.46,1.46,0,0,0-.84,2.8l17.47,5.26a.73.73,0,0,1,.48.91.71.71,0,0,1-.9.49l-11.3-3.4a4,4,0,0,0-1.85-.12l-1.55.27a3.14,3.14,0,0,1-1.43-.09l-3.31-1a7.13,7.13,0,0,1-4.77-8.89l.62-2.08a5.81,5.81,0,1,0-4.77.66,5.69,5.69,0,0,0,1.46.23l-.11.34a10.08,10.08,0,0,0,6.73,12.54l3.3,1a6,6,0,0,0,2.78.17l1.54-.26a1.14,1.14,0,0,1,.52,0l5.91,1.78,3.09,4.49a1,1,0,0,1-.54,1.55,1,1,0,0,1-1.15-.43l-3-4.63a1.45,1.45,0,0,0-2.45,1.57l3,4.64a4,4,0,0,0,4.46,1.64,3.91,3.91,0,0,0,2.57-2.47l.06-.17a3.93,3.93,0,0,0-.53-3.36l-1-1.48.9.27a3.65,3.65,0,1,0,2.11-7L54.65,59.22a4.06,4.06,0,0,0,.54-1.13l1.9-6.29ZM36,46a2.92,2.92,0,1,1,2,3.64A2.93,2.93,0,0,1,36,46Z"/><path class="cls-1" d="M68.44,69.23a1.43,1.43,0,0,1-.71.16,1.54,1.54,0,0,1-1.52-1.57L67,27.3a1.54,1.54,0,1,1,3.08.05L69.3,67.88A1.56,1.56,0,0,1,68.44,69.23Z"/><path class="cls-1" d="M57,52a1.53,1.53,0,0,1-2-2.12L67.15,28.12a1.54,1.54,0,1,1,2.69,1.49L57.67,51.4A1.39,1.39,0,0,1,57,52Z"/></g></g></svg>