<svg xmlns="http://www.w3.org/2000/svg" viewBox="0 0 103 103"><defs><style>.cls-1{fill:#21a4cc;}</style></defs><g id="Camada_2" data-name="Camada 2"><g id="Camada_2-2" data-name="Camada 2"><path class="cls-1" d="M96.5,103H6.5A6.51,6.51,0,0,1,0,96.5V6.5A6.51,6.51,0,0,1,6.5,0h90A6.51,6.51,0,0,1,103,6.5v90A6.51,6.51,0,0,1,96.5,103ZM6.5,3A3.5,3.5,0,0,0,3,6.5v90A3.5,3.5,0,0,0,6.5,100h90a3.5,3.5,0,0,0,3.5-3.5V6.5A3.5,3.5,0,0,0,96.5,3Z"/><path class="cls-1" d="M48.12,39.56a6.43,6.43,0,1,0-9.19,5.78v3.13A11,11,0,1,0,51.36,65.55,1.84,1.84,0,0,0,51,63a1.85,1.85,0,0,0-2.58.34,7.34,7.34,0,1,1-9.51-10.79v6.33a1.84,1.84,0,0,0,1.84,1.83H54.33L57.5,67a1.84,1.84,0,1,0,3.28-1.65L57.11,58a1.83,1.83,0,0,0-1.64-1H42.61V51.5h5.51a1.84,1.84,0,1,0,0-3.67H42.61V45.9A6.42,6.42,0,0,0,48.12,39.56ZM41.69,36.8a2.76,2.76,0,1,1-2.76,2.76A2.77,2.77,0,0,1,41.69,36.8Z"/><path class="cls-1" d="M70.28,25.78H49.53a1.84,1.84,0,0,0,0,3.68H70.28a3.26,3.26,0,0,1,3.26,3.26V70.28a3.26,3.26,0,0,1-3.26,3.26H32.72a3.26,3.26,0,0,1-3.26-3.26V32.72a3.26,3.26,0,0,1,3.26-3.26h8.64a1.84,1.84,0,1,0,0-3.68H32.72a7,7,0,0,0-6.94,6.94V70.28a7,7,0,0,0,6.94,6.94H70.28a7,7,0,0,0,6.94-6.94V32.72A7,7,0,0,0,70.28,25.78Z"/><path class="cls-1" d="M52.76,42.26A1.82,1.82,0,0,1,52,42.1a1.84,1.84,0,0,1-1.07-1.67V33.94a1.84,1.84,0,0,1,3.67,0v2.47l.47-.39A1.84,1.84,0,0,1,57.38,36l1,.77V33.94a1.84,1.84,0,0,1,3.67,0v6.49a1.83,1.83,0,0,1-3,1.46l-2.78-2.12-2.37,2A1.8,1.8,0,0,1,52.76,42.26Z"/><path class="cls-1" d="M70.44,42.66H65.16a1.83,1.83,0,0,1-1.84-1.83V33.94a1.83,1.83,0,0,1,1.84-1.83h5.28a1.83,1.83,0,1,1,0,3.66H67V39h3.44a1.83,1.83,0,1,1,0,3.66Z"/></g></g></svg>