<svg xmlns="http://www.w3.org/2000/svg" viewBox="0 0 103 103"><defs><style>.cls-1{fill:#21a4cc;}</style></defs><g id="Camada_2" data-name="Camada 2"><g id="Camada_2-2" data-name="Camada 2"><path class="cls-1" d="M96.5,103H6.5A6.51,6.51,0,0,1,0,96.5V6.5A6.51,6.51,0,0,1,6.5,0h90A6.51,6.51,0,0,1,103,6.5v90A6.51,6.51,0,0,1,96.5,103ZM6.5,3A3.5,3.5,0,0,0,3,6.5v90A3.5,3.5,0,0,0,6.5,100h90a3.5,3.5,0,0,0,3.5-3.5V6.5A3.5,3.5,0,0,0,96.5,3Z"/><path class="cls-1" d="M74.42,72,66,38.41v0a2.4,2.4,0,0,0-.11-.23,2.22,2.22,0,0,0-.23-.43s0,0,0,0-.12-.08-.18-.13a1.61,1.61,0,0,0-.36-.27,1.45,1.45,0,0,0-.29-.11,2.59,2.59,0,0,0-.4-.09s-.09,0-.14,0H58.85v-1.8a9,9,0,1,0-18.07,0V37H35.36a1.82,1.82,0,0,0-1.79,1.54L28.51,72.36a3.87,3.87,0,0,0,3.82,4.44H58.85a1.82,1.82,0,0,0,1.79-1.54l4.07-27.18,6.2,24.79a.25.25,0,0,1,0,.22.25.25,0,0,1-.2.09H66.08a1.81,1.81,0,0,0,0,3.62h4.59A3.86,3.86,0,0,0,74.42,72ZM57.29,73.18h-25a.23.23,0,0,1-.19-.09.22.22,0,0,1-.06-.19l4.84-32.24h3.86v1.81a1.81,1.81,0,0,0,3.61,0V35.24a5.43,5.43,0,0,1,10.85,0V37H49.82a1.81,1.81,0,0,0,0,3.62h5.42v1.81a1.81,1.81,0,0,0,3.61,0V40.66h3.32Z"/></g></g></svg>