<svg xmlns="http://www.w3.org/2000/svg" viewBox="0 0 103 103"><defs><style>.cls-1{fill:#21a4cc;}</style></defs><g id="Camada_2" data-name="Camada 2"><g id="Camada_2-2" data-name="Camada 2"><path class="cls-1" d="M96.5,103H6.5A6.51,6.51,0,0,1,0,96.5V6.5A6.51,6.51,0,0,1,6.5,0h90A6.51,6.51,0,0,1,103,6.5v90A6.51,6.51,0,0,1,96.5,103ZM6.5,3A3.5,3.5,0,0,0,3,6.5v90A3.5,3.5,0,0,0,6.5,100h90a3.5,3.5,0,0,0,3.5-3.5V6.5A3.5,3.5,0,0,0,96.5,3Z"/><path class="cls-1" d="M51.5,77.21A25.71,25.71,0,1,1,77.22,51.5,25.75,25.75,0,0,1,51.5,77.21Zm0-47.76a22.05,22.05,0,1,0,22,22.05A22.08,22.08,0,0,0,51.5,29.45Z"/><path class="cls-1" d="M68.43,68.88a1.87,1.87,0,0,1-1.22-.44l-34-30A1.87,1.87,0,0,1,33,35.8a1.83,1.83,0,0,1,2.6-.16l34,30a1.87,1.87,0,0,1,.16,2.6A1.8,1.8,0,0,1,68.43,68.88Z"/><path class="cls-1" d="M55.87,51.26a11.81,11.81,0,0,0,3.38.49,10.81,10.81,0,0,0,1.27-.07l4.76-.5a.83.83,0,0,0,.81.74h3.34a.83.83,0,0,0,.83-.83V49.42a.83.83,0,0,0-.83-.83.84.84,0,0,0-.84.83v.83H66.93v-7.5h1.66v3.33a.85.85,0,0,0,.84.84.84.84,0,0,0,.83-.84V41.92a.84.84,0,0,0-.83-.84H66.09a.83.83,0,0,0-.77.55l-1.73-.55a.78.78,0,0,0-.07-.33c-1-2.33-2.94-3.83-4.93-3.83h0a5.69,5.69,0,0,0-3,1,3.84,3.84,0,0,0-1.1,1.1,1.55,1.55,0,0,1-.54.54,2,2,0,0,1-1.17.29,4.37,4.37,0,0,0-2.11.52,4.24,4.24,0,0,0-2,2.07,4,4,0,0,0-.23,2.37,2.38,2.38,0,0,0-1.1.84,2.25,2.25,0,0,0-.28,2,2.35,2.35,0,0,0,1.56,1.46l1.41.42a1,1,0,0,0,.24,0,.84.84,0,0,0,.8-.6.83.83,0,0,0-.57-1l-1.41-.42a.66.66,0,0,1-.46-.41.6.6,0,0,1,.08-.53.74.74,0,0,1,.78-.28l5.28,1.26a4.08,4.08,0,0,0,1.67,0L59,47.12a2.2,2.2,0,0,0-.44-4.37h-.75a.45.45,0,0,1-.47-.42.44.44,0,0,1,.47-.41h2.38a3.47,3.47,0,0,1,1.07.16l4,1.28V49.5L60.35,50a10.08,10.08,0,0,1-4-.36l-2.51-.74a.85.85,0,0,0-1,.57.83.83,0,0,0,.57,1Zm5.57-10.84a5.4,5.4,0,0,0-1.27-.17H57.79a2.09,2.09,0,1,0,0,4.17h.75a.54.54,0,1,1,.12,1.07L56.11,46a2.22,2.22,0,0,1-1,0l-5-1.19a2.5,2.5,0,0,1,0-1.68,2.69,2.69,0,0,1,1.29-1.26,2.8,2.8,0,0,1,1.39-.32,3.71,3.71,0,0,0,2-.54,3.32,3.32,0,0,0,1-1,2.13,2.13,0,0,1,.67-.69,4.12,4.12,0,0,1,2-.69h0A3.74,3.74,0,0,1,61.44,40.42Z"/><path class="cls-1" d="M50.13,51.28H48.6a2.63,2.63,0,0,0-2.33-1.4h0V48.7a.64.64,0,0,0-.65-.64h-.83a2.16,2.16,0,0,0-2.06,1.48l-.28.85-.84,2.1a6.11,6.11,0,0,1-1.14,1.83L38.06,57a.64.64,0,0,0,0,.91.66.66,0,0,0,.91,0l2.41-2.68A7.47,7.47,0,0,0,42.81,53l.85-2.13L44,50a.89.89,0,0,1,.84-.61H45v1.29a.65.65,0,0,0,.26.52.63.63,0,0,0,.58.09,1.4,1.4,0,0,1,1.77.9.66.66,0,0,0,.61.42h1.29v1a.88.88,0,0,1-.89.88H46.91a.62.62,0,0,0-.55.32.64.64,0,0,0,0,.64,4.91,4.91,0,0,1,0,4.78.63.63,0,0,0-.07.3,2.45,2.45,0,0,0,.21,1l1.39,3.25H46.66L45,61.42V59.65a.65.65,0,1,0-1.29,0v1.93a.53.53,0,0,0,.07.28l1.46,2.94h-.89v-.44a2.15,2.15,0,0,0-1.28-2v-.18a2.58,2.58,0,0,0-2.58-2.57.64.64,0,0,0-.64.64.64.64,0,0,0,.64.64,1.29,1.29,0,0,1,1.29,1.29H40.47a.65.65,0,0,0,0,1.29h1.72a.86.86,0,0,1,.86.85v.44H40.82a3,3,0,0,1-2.72-1.69l0-.07a4.34,4.34,0,0,1-.4-2.65,2.74,2.74,0,0,1,.05-.28.64.64,0,0,0-.23-.65s0-.07,0-.1A5.17,5.17,0,0,1,37,56.17l.26-1.57A.65.65,0,0,0,37,54a.67.67,0,0,0-.61-.13,5.16,5.16,0,0,0-3,2.21A5,5,0,0,0,32.75,59a4,4,0,0,0,1.54,3.07,3.86,3.86,0,0,0,2.31.77h0a4.93,4.93,0,0,0,.31.75l0,.08a4.31,4.31,0,0,0,3.88,2.39h8a.62.62,0,0,0,.54-.29.61.61,0,0,0,0-.6l-1.77-4.14a1.12,1.12,0,0,1-.08-.26s0-.08,0-.12A6.3,6.3,0,0,0,48.19,57a5.53,5.53,0,0,0-.29-1.2h.7a2.17,2.17,0,0,0,2.17-2.17V51.92A.64.64,0,0,0,50.13,51.28ZM35.07,61.06A2.82,2.82,0,0,1,34,59a3.88,3.88,0,0,1,.55-2.2,3.76,3.76,0,0,1,1.2-1.19l-.07.39a6.48,6.48,0,0,0,.59,4,.53.53,0,0,0,.11.14.52.52,0,0,0,0,.11,5.32,5.32,0,0,0,0,1.38A2.6,2.6,0,0,1,35.07,61.06Z"/><path class="cls-1" d="M46.92,52.56a.64.64,0,0,0-.64-.64h0a.65.65,0,1,0,.65.64Z"/></g></g></svg>