<svg xmlns="http://www.w3.org/2000/svg" viewBox="0 0 103 103"><defs><style>.cls-1{fill:#21a4cc;}</style></defs><g id="Camada_2" data-name="Camada 2"><g id="Camada_2-2" data-name="Camada 2"><path class="cls-1" d="M96.5,103H6.5A6.51,6.51,0,0,1,0,96.5V6.5A6.51,6.51,0,0,1,6.5,0h90A6.51,6.51,0,0,1,103,6.5v90A6.51,6.51,0,0,1,96.5,103ZM6.5,3A3.5,3.5,0,0,0,3,6.5v90A3.5,3.5,0,0,0,6.5,100h90a3.5,3.5,0,0,0,3.5-3.5V6.5A3.5,3.5,0,0,0,96.5,3Z"/><path class="cls-1" d="M74.12,42.32H57V35a5.51,5.51,0,0,0-11,0V49.66H29.46V46h11a1.84,1.84,0,1,0,0-3.67H28.88a3.09,3.09,0,0,0-3.1,3.09v4.83a3.09,3.09,0,0,0,2.11,2.92L30.76,69a5.6,5.6,0,0,0,5.51,4.59H66.73A5.6,5.6,0,0,0,72.24,69l2.87-15.79a3.09,3.09,0,0,0,2.11-2.92V45.41A3.09,3.09,0,0,0,74.12,42.32ZM49.66,35a1.84,1.84,0,0,1,3.68,0V49.66H49.66Zm19,33.32a1.91,1.91,0,0,1-1.89,1.58H36.27a1.91,1.91,0,0,1-1.89-1.58l-2.72-15H55.17A1.84,1.84,0,0,0,57,51.5V46H73.54v3.67h-11a1.84,1.84,0,0,0,0,3.68h8.82Z"/></g></g></svg>