<svg xmlns="http://www.w3.org/2000/svg" viewBox="0 0 103 103"><defs><style>.cls-1{fill:#21a4cc;}</style></defs><g id="Camada_2" data-name="Camada 2"><g id="Camada_2-2" data-name="Camada 2"><path class="cls-1" d="M96.5,103H6.5A6.51,6.51,0,0,1,0,96.5V6.5A6.51,6.51,0,0,1,6.5,0h90A6.51,6.51,0,0,1,103,6.5v90A6.51,6.51,0,0,1,96.5,103ZM6.5,3A3.5,3.5,0,0,0,3,6.5v90A3.5,3.5,0,0,0,6.5,100h90a3.5,3.5,0,0,0,3.5-3.5V6.5A3.5,3.5,0,0,0,96.5,3Z"/><path class="cls-1" d="M61.48,51.21a6.74,6.74,0,0,0-.59-1,3.54,3.54,0,0,0,.73-2.06V41.46a3.82,3.82,0,0,0-4-3.7h-12a3.86,3.86,0,0,0-4.13,3.7v6.65a2.88,2.88,0,0,0,.89,2.06,2.58,2.58,0,0,0-.75,1c-1,2.07,0,4,1,6,.16.45.45.89.6,1.34a20.19,20.19,0,0,1,1.63,7.23V71.3a6.13,6.13,0,0,0,6.35,5.92H52a6.09,6.09,0,0,0,6.2-5.92V65.83a1.63,1.63,0,0,0-3.25,0V71.3A2.93,2.93,0,0,1,52,74.11h-.74a3.07,3.07,0,0,1-3.11-2.81V65.83a19.51,19.51,0,0,0-1.77-8.41,6.89,6.89,0,0,0-.74-1.49c-.73-1.47-1.33-2.65-.89-3.54.16-.15.3-.44.6-.59H57.78c.29.15.6.44.6.59.44.89-.16,2.07-.9,3.54a7.32,7.32,0,0,0-.73,1.49,1.43,1.43,0,0,0,.88,2.06,1.74,1.74,0,0,0,2.22-.88c.15-.45.45-.89.59-1.34C61.48,55.19,62.51,53.28,61.48,51.21Zm-3.26-3.1a.63.63,0,0,1-.59.59h-12a.67.67,0,0,1-.73-.59V41.46a.67.67,0,0,1,.73-.6h12a.63.63,0,0,1,.59.6Z"/><path class="cls-1" d="M55,45.6c0,.88-.74,1.47-1.77,1.47H50a1.66,1.66,0,0,1-1.78-1.47A1.77,1.77,0,0,1,50,44H53.2A1.67,1.67,0,0,1,55,45.6Z"/><path class="cls-1" d="M53.2,27.41v6.66a1.63,1.63,0,0,1-1.63,1.61,1.67,1.67,0,0,1-1.77-1.61V27.41a1.68,1.68,0,0,1,1.77-1.63A1.65,1.65,0,0,1,53.2,27.41Z"/><path class="cls-1" d="M64.43,33.33l-3.1,2.94a1.79,1.79,0,0,1-2.37,0,1.61,1.61,0,0,1,0-2.2l3.11-2.82a1.54,1.54,0,0,1,2.36,0A1.25,1.25,0,0,1,64.43,33.33Z"/><path class="cls-1" d="M44,36.27a1.63,1.63,0,0,1-1.18.45,1.65,1.65,0,0,1-1.19-.45l-3.1-2.94a1.44,1.44,0,0,1,0-2.08,1.56,1.56,0,0,1,2.37,0L44,34.07A1.59,1.59,0,0,1,44,36.27Z"/><path class="cls-1" d="M39.16,41.15a1.63,1.63,0,0,1-1.62,1.63H32.8a1.63,1.63,0,0,1-1.62-1.63,1.62,1.62,0,0,1,1.62-1.47h4.74A1.61,1.61,0,0,1,39.16,41.15Z"/><path class="cls-1" d="M71.82,41.15a1.63,1.63,0,0,1-1.62,1.63H65.46a1.63,1.63,0,0,1-1.62-1.63,1.62,1.62,0,0,1,1.62-1.47H70.2A1.62,1.62,0,0,1,71.82,41.15Z"/></g></g></svg>