<svg xmlns="http://www.w3.org/2000/svg" viewBox="0 0 103 103"><defs><style>.cls-1{fill:#21a4cc;}</style></defs><g id="Camada_2" data-name="Camada 2"><g id="Camada_2-2" data-name="Camada 2"><path class="cls-1" d="M96.5,103H6.5A6.51,6.51,0,0,1,0,96.5V6.5A6.51,6.51,0,0,1,6.5,0h90A6.51,6.51,0,0,1,103,6.5v90A6.51,6.51,0,0,1,96.5,103ZM6.5,3A3.5,3.5,0,0,0,3,6.5v90A3.5,3.5,0,0,0,6.5,100h90a3.5,3.5,0,0,0,3.5-3.5V6.5A3.5,3.5,0,0,0,96.5,3Z"/><path class="cls-1" d="M51.5,36.8a14.64,14.64,0,0,0-8.39,2.63,1.84,1.84,0,0,0,2.09,3A11,11,0,0,1,60.43,57.93,10.38,10.38,0,0,1,57,61v7H46V61a10.38,10.38,0,0,1-3.42-3.1,11,11,0,0,1-1-11.15,1.84,1.84,0,0,0-3.32-1.58,14.64,14.64,0,0,0,4.1,17.74V72.7a4.53,4.53,0,0,0,4.51,4.52h9.34a4.53,4.53,0,0,0,4.51-4.52V62.94A14.58,14.58,0,0,0,66.2,51.5,14.72,14.72,0,0,0,51.5,36.8ZM57,72.7a.85.85,0,0,1-.84.84H46.83A.85.85,0,0,1,46,72.7v-1H57Z"/><path class="cls-1" d="M51.5,64.36a1.84,1.84,0,0,0,1.84-1.84V55.17h1.83a1.84,1.84,0,1,0,0-3.67H47.83a1.84,1.84,0,1,0,0,3.67h1.83v7.35A1.84,1.84,0,0,0,51.5,64.36Z"/><path class="cls-1" d="M51.5,35a1.84,1.84,0,0,0,1.84-1.84V27.62a1.84,1.84,0,0,0-3.68,0v5.51A1.84,1.84,0,0,0,51.5,35Z"/><path class="cls-1" d="M66.2,29a1.84,1.84,0,0,0-2.51.67l-2.76,4.78A1.83,1.83,0,0,0,61.6,37a1.91,1.91,0,0,0,.92.24,1.84,1.84,0,0,0,1.59-.92l2.76-4.77A1.85,1.85,0,0,0,66.2,29Z"/><path class="cls-1" d="M76.43,39.8a1.86,1.86,0,0,0-2.36-1.1l-5.18,1.89a1.83,1.83,0,0,0,.63,3.56,1.74,1.74,0,0,0,.63-.11l5.18-1.88A1.85,1.85,0,0,0,76.43,39.8Z"/><path class="cls-1" d="M40.48,37.24A1.91,1.91,0,0,0,41.4,37a1.83,1.83,0,0,0,.67-2.51l-2.76-4.78a1.84,1.84,0,0,0-3.18,1.84l2.76,4.77A1.84,1.84,0,0,0,40.48,37.24Z"/><path class="cls-1" d="M34.11,40.59,28.93,38.7a1.84,1.84,0,0,0-1.26,3.46L32.85,44a1.74,1.74,0,0,0,.63.11,1.83,1.83,0,0,0,.63-3.56Z"/></g></g></svg>