<svg xmlns="http://www.w3.org/2000/svg" viewBox="0 0 103 103"><defs><style>.cls-1{fill:#21a4cc;}</style></defs><g id="Camada_2" data-name="Camada 2"><g id="Camada_2-2" data-name="Camada 2"><path class="cls-1" d="M96.5,103H6.5A6.51,6.51,0,0,1,0,96.5V6.5A6.51,6.51,0,0,1,6.5,0h90A6.51,6.51,0,0,1,103,6.5v90A6.51,6.51,0,0,1,96.5,103ZM6.5,3A3.5,3.5,0,0,0,3,6.5v90A3.5,3.5,0,0,0,6.5,100h90a3.5,3.5,0,0,0,3.5-3.5V6.5A3.5,3.5,0,0,0,96.5,3Z"/><path class="cls-1" d="M75.38,50.58a1.84,1.84,0,0,0-1.84,1.84V65.09a2,2,0,0,1-2,2h-40a2,2,0,0,1-2-2V43.42a2,2,0,0,1,2-2h9a1.85,1.85,0,0,0,1.84-1.84V36.65a.76.76,0,0,1,.76-.76H59.92a.76.76,0,0,1,.76.76v2.91a1.85,1.85,0,0,0,1.84,1.84h9a2,2,0,0,1,2,2,1.84,1.84,0,0,0,3.68,0,5.71,5.71,0,0,0-5.7-5.7H64.36V36.65a4.44,4.44,0,0,0-4.44-4.44H43.08a4.44,4.44,0,0,0-4.44,4.44v1.07H31.48a5.71,5.71,0,0,0-5.7,5.7V65.09a5.71,5.71,0,0,0,5.7,5.7h40a5.71,5.71,0,0,0,5.7-5.7V52.42A1.84,1.84,0,0,0,75.38,50.58Z"/><path class="cls-1" d="M45.25,45.44a1.83,1.83,0,0,0-2.57.36,11,11,0,1,0,8.82-4.4,1.84,1.84,0,1,0,0,3.67,7.35,7.35,0,1,1-7.35,7.35A7.29,7.29,0,0,1,45.62,48,1.83,1.83,0,0,0,45.25,45.44Z"/></g></g></svg>