<svg xmlns="http://www.w3.org/2000/svg" viewBox="0 0 103 103"><defs><style>.cls-1{fill:#21a4cc;}</style></defs><g id="Camada_2" data-name="Camada 2"><g id="Camada_2-2" data-name="Camada 2"><path class="cls-1" d="M96.5,103H6.5A6.51,6.51,0,0,1,0,96.5V6.5A6.51,6.51,0,0,1,6.5,0h90A6.51,6.51,0,0,1,103,6.5v90A6.51,6.51,0,0,1,96.5,103ZM6.5,3A3.5,3.5,0,0,0,3,6.5v90A3.5,3.5,0,0,0,6.5,100h90a3.5,3.5,0,0,0,3.5-3.5V6.5A3.5,3.5,0,0,0,96.5,3Z"/><path class="cls-1" d="M51.5,77.22A25.72,25.72,0,1,1,77.23,51.5,25.75,25.75,0,0,1,51.5,77.22Zm0-47.78a22.06,22.06,0,1,0,22,22.06A22.09,22.09,0,0,0,51.5,29.44Z"/><path class="cls-1" d="M68.43,68.89a1.83,1.83,0,0,1-1.22-.45l-34-30A1.86,1.86,0,0,1,33,35.8a1.83,1.83,0,0,1,2.61-.16l34,30a1.85,1.85,0,0,1,.16,2.6A1.82,1.82,0,0,1,68.43,68.89Z"/><path class="cls-1" d="M68.9,63.5H47A1.53,1.53,0,0,1,45.49,62V56.33A1.53,1.53,0,0,1,47,54.8H68.9a1.53,1.53,0,0,1,1.54,1.53V62A1.53,1.53,0,0,1,68.9,63.5ZM48.57,60.43H67.36V57.86H48.57Z"/><path class="cls-1" d="M68.9,63.5H62.81A1.54,1.54,0,0,1,61.27,62V56.33a1.53,1.53,0,0,1,1.54-1.53H68.9a1.53,1.53,0,0,1,1.54,1.53V62A1.53,1.53,0,0,1,68.9,63.5Zm-4.54-3.07h3V57.86h-3Z"/><path class="cls-1" d="M43.23,63.5H39.3A1.54,1.54,0,0,1,37.76,62V56.33A1.53,1.53,0,0,1,39.3,54.8h3.93a1.53,1.53,0,0,1,1.54,1.53V62A1.53,1.53,0,0,1,43.23,63.5Zm-2.38-3.07h.84V57.86h-.84Z"/><path class="cls-1" d="M35.68,60.55a1.5,1.5,0,0,1-1.31-.73c-1.63-2.71-2.17-5.22-1.58-7.46a8.22,8.22,0,0,1,1.29-2.64A5.41,5.41,0,0,0,35,48c.42-1.46.08-3.21-1-5.21a1.54,1.54,0,0,1,2.71-1.48c1.49,2.74,1.91,5.28,1.26,7.53a8.49,8.49,0,0,1-1.3,2.6,5.19,5.19,0,0,0-.86,1.69c-.37,1.42,0,3.09,1.23,5.07a1.52,1.52,0,0,1-1.32,2.33Z"/><path class="cls-1" d="M41.11,51a1.53,1.53,0,0,1-1.32-.73A5.61,5.61,0,0,1,38.92,46a4.92,4.92,0,0,1,.75-1.56,1.94,1.94,0,0,0,.34-.62,2.83,2.83,0,0,0-.43-2,1.54,1.54,0,1,1,2.7-1.47A5.71,5.71,0,0,1,43,44.64a4.86,4.86,0,0,1-.75,1.52,1.64,1.64,0,0,0-.32.61,2.69,2.69,0,0,0,.52,1.94,1.54,1.54,0,0,1-.52,2.12A1.49,1.49,0,0,1,41.11,51Z"/><path class="cls-1" d="M44.48,54.32a1.65,1.65,0,0,1-.43-.06,1.54,1.54,0,0,1-1-1.91,5,5,0,0,1,.76-1.5,1.77,1.77,0,0,0,.32-.6,2.75,2.75,0,0,0-.53-2,1.54,1.54,0,0,1,.53-2.11,1.51,1.51,0,0,1,2.11.54A5.62,5.62,0,0,1,47.06,51a4.91,4.91,0,0,1-.76,1.56,1.88,1.88,0,0,0-.34.63A1.54,1.54,0,0,1,44.48,54.32Z"/></g></g></svg>