<svg xmlns="http://www.w3.org/2000/svg" viewBox="0 0 103 103"><defs><style>.cls-1{fill:#21a4cc;}</style></defs><g id="Camada_2" data-name="Camada 2"><g id="Camada_2-2" data-name="Camada 2"><path class="cls-1" d="M96.5,103H6.5A6.51,6.51,0,0,1,0,96.5V6.5A6.51,6.51,0,0,1,6.5,0h90A6.51,6.51,0,0,1,103,6.5v90A6.51,6.51,0,0,1,96.5,103ZM6.5,3A3.5,3.5,0,0,0,3,6.5v90A3.5,3.5,0,0,0,6.5,100h90a3.5,3.5,0,0,0,3.5-3.5V6.5A3.5,3.5,0,0,0,96.5,3Z"/><path class="cls-1" d="M41.38,34.57a6.74,6.74,0,0,1-1,3.59,1.73,1.73,0,0,1-2.4.52,1.7,1.7,0,0,1-.51-2.41,3.23,3.23,0,0,0,.51-1.7A3.5,3.5,0,0,0,34.36,31a3.47,3.47,0,0,0-3.42,3.59A3.42,3.42,0,0,0,34.36,38a1.72,1.72,0,0,1,0,3.43,6.94,6.94,0,0,1,0-13.87A6.94,6.94,0,0,1,41.38,34.57Z"/><path class="cls-1" d="M41.38,43.29H35.9A1.71,1.71,0,0,0,34.19,45a1.83,1.83,0,0,0,1.71,1.7h3.76V61.77H29.23V46.71h2.05A1.83,1.83,0,0,0,33,45a1.71,1.71,0,0,0-1.71-1.72H27.52A1.72,1.72,0,0,0,25.81,45V63.47a1.72,1.72,0,0,0,1.71,1.72h1.71v8.55a1.62,1.62,0,0,0,1.71,1.71h7a1.62,1.62,0,0,0,1.71-1.71V65.19h1.72a1.72,1.72,0,0,0,1.71-1.72V45A1.72,1.72,0,0,0,41.38,43.29ZM36.25,72.21h-3.6v-7h3.6Z"/><path class="cls-1" d="M72,34.57a7,7,0,0,1-7,6.85,7,7,0,0,1-3.07-13.18,1.7,1.7,0,0,1,2.22.85,1.51,1.51,0,0,1-.69,2.22,3.7,3.7,0,0,0-1.88,3.26,3.43,3.43,0,0,0,6.85,0,3.7,3.7,0,0,0-1.88-3.26,1.5,1.5,0,0,1-.69-2.22,1.76,1.76,0,0,1,2.22-.85A7,7,0,0,1,72,34.57Z"/><path class="cls-1" d="M76.62,61.25a1.63,1.63,0,0,0-2.06-1.19,1.4,1.4,0,0,0-1.19,1.71H56.77l3.77-15.06H69.6L72,57a1.78,1.78,0,0,0,2.22,1.2,1.66,1.66,0,0,0,1.2-2.05L72.51,44.49a1.71,1.71,0,0,0-1.71-1.2H59.17a1.72,1.72,0,0,0-1.72,1.2L52.84,63.14a1.74,1.74,0,0,0,.34,1.53,1.92,1.92,0,0,0,1.37.52h5.13v8.55a1.72,1.72,0,0,0,1.71,1.71h7.18a1.71,1.71,0,0,0,1.71-1.71V65.19h5.14a1.94,1.94,0,0,0,1.37-.52,1.74,1.74,0,0,0,.34-1.53Zm-9.75,11H63.1v-7h3.77Z"/><path class="cls-1" d="M50.78,70.84v2.9a1.61,1.61,0,0,1-1.7,1.71,1.72,1.72,0,0,1-1.72-1.71v-2.9a1.86,1.86,0,0,1,1.72-1.72A1.72,1.72,0,0,1,50.78,70.84Z"/><path class="cls-1" d="M50.78,29.26V65a1.61,1.61,0,0,1-1.7,1.71A1.72,1.72,0,0,1,47.36,65V29.26a1.72,1.72,0,0,1,1.72-1.71A1.61,1.61,0,0,1,50.78,29.26Z"/></g></g></svg>