<svg xmlns="http://www.w3.org/2000/svg" viewBox="0 0 103 103"><defs><style>.cls-1{fill:#21a4cc;}</style></defs><g id="Camada_2" data-name="Camada 2"><g id="Camada_2-2" data-name="Camada 2"><path class="cls-1" d="M96.5,103H6.5A6.51,6.51,0,0,1,0,96.5V6.5A6.51,6.51,0,0,1,6.5,0h90A6.51,6.51,0,0,1,103,6.5v90A6.51,6.51,0,0,1,96.5,103ZM6.5,3A3.5,3.5,0,0,0,3,6.5v90A3.5,3.5,0,0,0,6.5,100h90a3.5,3.5,0,0,0,3.5-3.5V6.5A3.5,3.5,0,0,0,96.5,3Z"/><path class="cls-1" d="M75.5,76.07h-48a1.69,1.69,0,0,1-1.24-.52,1.77,1.77,0,0,1-.48-1.27L27.52,38a1.72,1.72,0,0,1,1.34-1.59l8-1.77.39-4.59a1.7,1.7,0,0,1,1.53-1.55l15.61-1.59a1.92,1.92,0,0,1,1.74,1l3.08,7L65.48,33a1.72,1.72,0,0,1,1.84.55l4.53,5.54a1.77,1.77,0,0,1,.39,1.09v6.16l4.9,16.41a1.51,1.51,0,0,1,.08.48V74.37A1.7,1.7,0,0,1,75.5,76.07ZM29.3,72.66H73.78V63.45l-4.9-16.4a1.57,1.57,0,0,1-.08-.49V40.77l-3.4-4.18-4.25,1.32v1.65a1.72,1.72,0,0,1-1.37,1.68,1.63,1.63,0,0,1-1.91-1l-4.31-9.79-13,1.32L39.54,44.1a1.9,1.9,0,0,1-1.78,1.56A1.72,1.72,0,0,1,36.12,44V38.34L30.88,39.5Z"/><path class="cls-1" d="M38.15,53.69a1.57,1.57,0,0,1-1-.3l-1.44-1-1.23.77a1.75,1.75,0,0,1-2.36-.55,1.71,1.71,0,0,1,.56-2.36l2.18-1.35a1.75,1.75,0,0,1,1.88.05l2.35,1.62a1.7,1.7,0,0,1-1,3.11Z"/><path class="cls-1" d="M46.24,56.49h-3.5a1.71,1.71,0,0,1,0-3.42h1.93c.46-2.89,2.13-6.56,6.38-6.56a1.71,1.71,0,1,1,0,3.42C48,49.93,48,54.73,48,54.78A1.71,1.71,0,0,1,46.24,56.49Z"/><path class="cls-1" d="M55.53,64.74a28.92,28.92,0,0,1-8.89-1.52c-3.3-1.31-1.92-6.88-1.42-8.56a1.49,1.49,0,0,1,1.87-1.2s9.28,1.27,11.9,1.69a3.44,3.44,0,0,1,2.84,3.6c0,2.43-1.62,5.34-4.14,5.82A11.76,11.76,0,0,1,55.53,64.74Zm-7.36-7.68a6.36,6.36,0,0,0-.08,3.11c1.67.6,6.7,1.44,8.95,1,.36-.06.8-.53,1.08-1.15a2.23,2.23,0,0,0,.22-1.59Z"/><path class="cls-1" d="M42.74,67.3A1.69,1.69,0,0,1,41,65.61a6.43,6.43,0,0,1,4.26-6.54,1.71,1.71,0,0,1,1,3.29c-.33.12-1.83.74-1.79,3.2a1.71,1.71,0,0,1-1.69,1.74Z"/><path class="cls-1" d="M56.88,70.48a1.33,1.33,0,0,1-.4,0,3.14,3.14,0,0,1-2.36-1.84c-.91-2.16.73-5,1.26-5.87a1.71,1.71,0,1,1,2.9,1.8,5.81,5.81,0,0,0-1,2.75,1.58,1.58,0,0,1,1.26,1.94A1.66,1.66,0,0,1,56.88,70.48Z"/><path class="cls-1" d="M61,49.93A1.68,1.68,0,0,1,59.45,49a1.71,1.71,0,0,1,.72-2.32l1.75-.92a1.69,1.69,0,0,1,2.31.71,1.74,1.74,0,0,1-.72,2.33l-1.75.92A1.63,1.63,0,0,1,61,49.93Z"/><path class="cls-1" d="M44.55,42.73a1.71,1.71,0,0,1-1.44-.79l-.88-1.37a1.7,1.7,0,0,1,.52-2.36l.1-.07.88-1.86a1.71,1.71,0,0,1,2.91-.3l2,2.7A1.69,1.69,0,0,1,49,40.12a1.78,1.78,0,0,1-.94,1.15l-2.77,1.31A1.91,1.91,0,0,1,44.55,42.73Z"/><path class="cls-1" d="M34.49,71.27a1.71,1.71,0,0,1-.09-3.42l2.84-.15h.09a1.71,1.71,0,0,1,.1,3.42l-2.85.15Z"/><path class="cls-1" d="M67.24,68.06h0a1.72,1.72,0,0,1-1.7-1.73l.07-6.49a1.72,1.72,0,0,1,1.72-1.69h0A1.7,1.7,0,0,1,69,59.87L69,66.36A1.73,1.73,0,0,1,67.24,68.06Z"/></g></g></svg>