<svg xmlns="http://www.w3.org/2000/svg" viewBox="0 0 103 103"><defs><style>.cls-1{fill:#21a4cc;}</style></defs><g id="Camada_2" data-name="Camada 2"><g id="Camada_2-2" data-name="Camada 2"><path class="cls-1" d="M96.5,103H6.5A6.51,6.51,0,0,1,0,96.5V6.5A6.51,6.51,0,0,1,6.5,0h90A6.51,6.51,0,0,1,103,6.5v90A6.51,6.51,0,0,1,96.5,103ZM6.5,3A3.5,3.5,0,0,0,3,6.5v90A3.5,3.5,0,0,0,6.5,100h90a3.5,3.5,0,0,0,3.5-3.5V6.5A3.5,3.5,0,0,0,96.5,3Z"/><path class="cls-1" d="M70.67,69.53a1.84,1.84,0,0,0-3.62.66l.61,3.34H62.52V69.86a1.84,1.84,0,0,0-3.68,0v3.67H44.15V69.86a1.84,1.84,0,0,0-3.67,0v3.67H35.34l1.42-7.85a10.52,10.52,0,0,1,4.68-7L44.67,62a3.75,3.75,0,0,0,2.64,1.09,4,4,0,0,0,.6,0,3.74,3.74,0,0,0,2.74-2l.85-1.71L52.35,61a3.74,3.74,0,0,0,2.74,2,4,4,0,0,0,.6,0A3.75,3.75,0,0,0,58.33,62l3.25-3.25a10.58,10.58,0,0,1,3.91,4.55,1.83,1.83,0,1,0,3.35-1.49,14.21,14.21,0,0,0-9-7.85,12.82,12.82,0,0,0,4.51-9.77V42.32H68a1.83,1.83,0,0,0,1.52-2.86,14.06,14.06,0,0,0-5.22-4.69,9.18,9.18,0,0,0-9.16-9H53.34a1.84,1.84,0,1,0,0,3.67h1.83a5.49,5.49,0,0,1,5.26,4,14.21,14.21,0,0,0-2.7-.28H45.27a14.23,14.23,0,0,0-2.71.28,5.48,5.48,0,0,1,3.89-3.78,1.84,1.84,0,0,0-.92-3.56,9.19,9.19,0,0,0-6.87,8.69,14.19,14.19,0,0,0-5.21,4.69A1.83,1.83,0,0,0,35,42.32h3.68v1.83a12.82,12.82,0,0,0,4.51,9.77A14.23,14.23,0,0,0,33.15,65L31.33,75a1.84,1.84,0,0,0,1.81,2.17H69.86A1.84,1.84,0,0,0,71.67,75ZM47.27,59.36l-2.15-2.14a10.61,10.61,0,0,1,2-.21h1.32Zm8.37,0L54.47,57h1.37a10.92,10.92,0,0,1,2,.21Zm2.09-22.53a10.44,10.44,0,0,1,6,1.84H39.32a10.44,10.44,0,0,1,6-1.84ZM42.32,44.15V42.32H60.68v1.83a9.18,9.18,0,1,1-18.36,0Z"/><path class="cls-1" d="M51.54,62.52h0a1.82,1.82,0,0,0-1.83,1.83,1.84,1.84,0,1,0,1.85-1.83Z"/><path class="cls-1" d="M51.54,68h0a1.82,1.82,0,0,0-1.83,1.83A1.84,1.84,0,1,0,51.54,68Z"/><path class="cls-1" d="M47.86,47.83a1.84,1.84,0,1,0,0-3.68h0a1.84,1.84,0,0,0,0,3.68Z"/><path class="cls-1" d="M55.21,47.83a1.84,1.84,0,0,0,0-3.68h0a1.84,1.84,0,0,0,0,3.68Z"/></g></g></svg>