<svg xmlns="http://www.w3.org/2000/svg" viewBox="0 0 103 103"><defs><style>.cls-1{fill:#21a4cc;}</style></defs><g id="Camada_2" data-name="Camada 2"><g id="Camada_2-2" data-name="Camada 2"><path class="cls-1" d="M96.5,103H6.5A6.51,6.51,0,0,1,0,96.5V6.5A6.51,6.51,0,0,1,6.5,0h90A6.51,6.51,0,0,1,103,6.5v90A6.51,6.51,0,0,1,96.5,103ZM6.5,3A3.5,3.5,0,0,0,3,6.5v90A3.5,3.5,0,0,0,6.5,100h90a3.5,3.5,0,0,0,3.5-3.5V6.5A3.5,3.5,0,0,0,96.5,3Z"/><path class="cls-1" d="M42.85,69a4.65,4.65,0,0,1-2.76-.9l-4-2.88a9,9,0,0,0-5.33-1.73H27.62a1.84,1.84,0,1,0,0,3.67h3.16a5.41,5.41,0,0,1,3.18,1l4,2.88a8.29,8.29,0,0,0,4.92,1.6,1.84,1.84,0,1,0,0-3.67Z"/><path class="cls-1" d="M75.87,56.38a4.66,4.66,0,0,0-5.71-.55L62.8,60.58a7.54,7.54,0,0,0-6.88-4.4H53.43a2.19,2.19,0,0,1-1.27-.41l-2.93-2.13a11.83,11.83,0,0,1,13.15,2,1.86,1.86,0,0,0,1.25.49A1.82,1.82,0,0,0,65,55.59a1.84,1.84,0,0,0-.09-2.6A15.59,15.59,0,0,0,57,49.08v-6a9.78,9.78,0,0,0,1.9.21,11,11,0,0,0,6-1.92,12.28,12.28,0,0,0,4.9-8.6,1.84,1.84,0,0,0-1.18-1.88,10.43,10.43,0,0,0-9.43,1.29,11.46,11.46,0,0,0-4.08,5.31,11.46,11.46,0,0,0-4.08-5.31,10.44,10.44,0,0,0-9.44-1.29,1.82,1.82,0,0,0-1.17,1.88,12.24,12.24,0,0,0,4.9,8.6,11,11,0,0,0,6,1.92,10,10,0,0,0,1.91-.21V48.9a15.37,15.37,0,0,0-7.65,2.55,9.83,9.83,0,0,0-3.78-.78H27.62a1.84,1.84,0,1,0,0,3.67H41.91a6.19,6.19,0,0,1,3.63,1.17L50,58.74a5.83,5.83,0,0,0,3.43,1.11h2.49a3.85,3.85,0,0,1,3.29,1.84h-10a10.39,10.39,0,0,1-4.48-1L43.43,60a1.83,1.83,0,1,0-1.6,3.3l1.29.63a14.09,14.09,0,0,0,6.08,1.39H59.9a7.62,7.62,0,0,0,4.15-1.22l8.1-5.22a1,1,0,0,1,1.16.1.76.76,0,0,1,.23.6.75.75,0,0,1-.31.56l-11,8a4.68,4.68,0,0,1-2.77.9H49.67a1.84,1.84,0,1,0,0,3.67h9.82a8.34,8.34,0,0,0,4.93-1.6l11-8a4.43,4.43,0,0,0,.48-6.77ZM61.38,35.21A7.09,7.09,0,0,1,65.89,34a8.13,8.13,0,0,1-3,4.4,7.19,7.19,0,0,1-4.52,1.21A8.16,8.16,0,0,1,61.38,35.21ZM47.51,38.4a8.21,8.21,0,0,1-3-4.4A7.22,7.22,0,0,1,49,35.21,8.21,8.21,0,0,1,52,39.61,7.19,7.19,0,0,1,47.51,38.4Z"/></g></g></svg>